<?xml version="1.0" standalone="no"?>
 <!DOCTYPE svg PUBLIC "-//W3C//DTD SVG 1.1//EN" 
 "http://www.w3.org/Graphics/SVG/1.1/DTD/svg11.dtd"> 
<svg xmlns="http://www.w3.org/2000/svg" version="1.1" 
    width="29.7002cm" height="21.0007cm" viewBox="0 0 116930 82680 ">
<title>SVG Picture created as rf_noise_source-F.Paste.svg date 2021/07/14 20:47:21 </title>
  <desc>Picture generated by PCBNEW </desc>
<g style="fill:#000000; fill-opacity:1;stroke:#000000; stroke-opacity:1;
stroke-linecap:round; stroke-linejoin:round; "
 transform="translate(0 0) scale(1 1)">
</g>
<g style="fill:#000000; fill-opacity:0.0; 
stroke:#000000; stroke-width:-0.000393701; stroke-opacity:1; 
stroke-linecap:round; stroke-linejoin:round;">
</g>
<g style="fill:#000000; fill-opacity:0.0; 
stroke:#000000; stroke-width:59.0551; stroke-opacity:1; 
stroke-linecap:round; stroke-linejoin:round;">
<path d="M62200 43950
L62200 34850
" />
<path d="M49550 43950
L62200 43950
" />
<path d="M49550 34850
L49550 43950
" />
<path d="M62200 34850
L49550 34850
" />
</g>
<g style="fill:#000000; fill-opacity:0.0; 
stroke:#000000; stroke-width:0; stroke-opacity:1; 
stroke-linecap:round; stroke-linejoin:round;">
</g>
<g style="fill:#000000; fill-opacity:1.0; 
stroke:#000000; stroke-width:0; stroke-opacity:1; 
stroke-linecap:round; stroke-linejoin:round;">
<polyline style="fill-rule:evenodd;"
points="58509,39296
58509,38803
58903,38803
58903,39296
58509,39296
" /> 
<polyline style="fill-rule:evenodd;"
points="59296,39296
59296,38803
59690,38803
59690,39296
59296,39296
" /> 
<polyline style="fill-rule:evenodd;"
points="51040,37803
51040,38296
50646,38296
50646,37803
51040,37803
" /> 
<polyline style="fill-rule:evenodd;"
points="50253,37803
50253,38296
49859,38296
49859,37803
50253,37803
" /> 
<polyline style="fill-rule:evenodd;"
points="54009,39646
54009,39153
54403,39153
54403,39646
54009,39646
" /> 
<polyline style="fill-rule:evenodd;"
points="54796,39646
54796,39153
55190,39153
55190,39646
54796,39646
" /> 
<polyline style="fill-rule:evenodd;"
points="58509,40046
58509,39553
58903,39553
58903,40046
58509,40046
" /> 
<polyline style="fill-rule:evenodd;"
points="59296,40046
59296,39553
59690,39553
59690,40046
59296,40046
" /> 
<polyline style="fill-rule:evenodd;"
points="52353,40459
52846,40459
52846,40853
52353,40853
52353,40459
" /> 
<polyline style="fill-rule:evenodd;"
points="52353,41246
52846,41246
52846,41640
52353,41640
52353,41246
" /> 
<polyline style="fill-rule:evenodd;"
points="57046,37590
56553,37590
56553,37196
57046,37196
57046,37590
" /> 
<polyline style="fill-rule:evenodd;"
points="57046,36803
56553,36803
56553,36409
57046,36409
57046,36803
" /> 
<polyline style="fill-rule:evenodd;"
points="61850,37150
61850,38150
60100,38150
60100,37150
61850,37150
" /> 
<polyline style="fill-rule:evenodd;"
points="61850,40650
61850,41650
60100,41650
60100,40650
61850,40650
" /> 
<polyline style="fill-rule:evenodd;"
points="61850,38900
61850,39900
60100,39900
60100,38900
61850,38900
" /> 
<polyline style="fill-rule:evenodd;"
points="57383,39570
57068,39570
57068,39216
57383,39216
57383,39570
" /> 
<polyline style="fill-rule:evenodd;"
points="58131,39570
57816,39570
57816,39216
58131,39216
58131,39570
" /> 
<polyline style="fill-rule:evenodd;"
points="57757,38783
57442,38783
57442,38429
57757,38429
57757,38783
" /> 
<polyline style="fill-rule:evenodd;"
points="52429,39183
52429,38868
52783,38868
52783,39183
52429,39183
" /> 
<polyline style="fill-rule:evenodd;"
points="52429,39931
52429,39616
52783,39616
52783,39931
52429,39931
" /> 
<polyline style="fill-rule:evenodd;"
points="53216,39557
53216,39242
53570,39242
53570,39557
53216,39557
" /> 
<polyline style="fill-rule:evenodd;"
points="52461,37194
52461,37705
52186,37705
52186,37194
52461,37194
" /> 
<polyline style="fill-rule:evenodd;"
points="51713,37194
51713,37705
51438,37705
51438,37194
51713,37194
" /> 
<polyline style="fill-rule:evenodd;"
points="53944,37338
54455,37338
54455,37613
53944,37613
53944,37338
" /> 
<polyline style="fill-rule:evenodd;"
points="53944,38086
54455,38086
54455,38361
53944,38361
53944,38086
" /> 
<polyline style="fill-rule:evenodd;"
points="55444,37338
55955,37338
55955,37613
55444,37613
55444,37338
" /> 
<polyline style="fill-rule:evenodd;"
points="55444,38086
55955,38086
55955,38361
55444,38361
55444,38086
" /> 
<polyline style="fill-rule:evenodd;"
points="56611,38744
56611,39255
56336,39255
56336,38744
56611,38744
" /> 
<polyline style="fill-rule:evenodd;"
points="55863,38744
55863,39255
55588,39255
55588,38744
55863,38744
" /> 
<polyline style="fill-rule:evenodd;"
points="56611,39544
56611,40055
56336,40055
56336,39544
56611,39544
" /> 
<polyline style="fill-rule:evenodd;"
points="55863,39544
55863,40055
55588,40055
55588,39544
55863,39544
" /> 
<polyline style="fill-rule:evenodd;"
points="53094,40538
53605,40538
53605,40813
53094,40813
53094,40538
" /> 
<polyline style="fill-rule:evenodd;"
points="53094,41286
53605,41286
53605,41561
53094,41561
53094,41286
" /> 
<polyline style="fill-rule:evenodd;"
points="55444,40488
55955,40488
55955,40763
55444,40763
55444,40488
" /> 
<polyline style="fill-rule:evenodd;"
points="55444,41236
55955,41236
55955,41511
55444,41511
55444,41236
" /> 
<polyline style="fill-rule:evenodd;"
points="57694,39988
58205,39988
58205,40263
57694,40263
57694,39988
" /> 
<polyline style="fill-rule:evenodd;"
points="57694,40736
58205,40736
58205,41011
57694,41011
57694,40736
" /> 
<polyline style="fill-rule:evenodd;"
points="51566,38629
51881,38629
51881,38983
51566,38983
51566,38629
" /> 
<polyline style="fill-rule:evenodd;"
points="50818,38629
51133,38629
51133,38983
50818,38983
50818,38629
" /> 
<polyline style="fill-rule:evenodd;"
points="51192,39416
51507,39416
51507,39770
51192,39770
51192,39416
" /> 
<polyline style="fill-rule:evenodd;"
points="53496,37590
53003,37590
53003,37196
53496,37196
53496,37590
" /> 
<polyline style="fill-rule:evenodd;"
points="53496,36803
53003,36803
53003,36409
53496,36409
53496,36803
" /> 
<polyline style="fill-rule:evenodd;"
points="55196,37590
54703,37590
54703,37196
55196,37196
55196,37590
" /> 
<polyline style="fill-rule:evenodd;"
points="55196,36803
54703,36803
54703,36409
55196,36409
55196,36803
" /> 
</g> 
</svg>
