<?xml version="1.0" standalone="no"?>
 <!DOCTYPE svg PUBLIC "-//W3C//DTD SVG 1.1//EN" 
 "http://www.w3.org/Graphics/SVG/1.1/DTD/svg11.dtd"> 
<svg xmlns="http://www.w3.org/2000/svg" version="1.1" 
    width="29.7002cm" height="21.0007cm" viewBox="0 0 116930 82680 ">
<title>SVG Picture created as rf_noise_source-F.Cu.svg date 2021/07/14 20:47:21 </title>
  <desc>Picture generated by PCBNEW </desc>
<g style="fill:#000000; fill-opacity:1;stroke:#000000; stroke-opacity:1;
stroke-linecap:round; stroke-linejoin:round; "
 transform="translate(0 0) scale(1 1)">
</g>
<g style="fill:#000000; fill-opacity:0.0; 
stroke:#000000; stroke-width:-0.000393701; stroke-opacity:1; 
stroke-linecap:round; stroke-linejoin:round;">
</g>
<g style="fill:#000000; fill-opacity:0.0; 
stroke:#000000; stroke-width:59.0551; stroke-opacity:1; 
stroke-linecap:round; stroke-linejoin:round;">
<path d="M62200 43950
L62200 34850
" />
<path d="M49550 43950
L62200 43950
" />
<path d="M49550 34850
L49550 43950
" />
<path d="M62200 34850
L49550 34850
" />
</g>
<g style="fill:#000000; fill-opacity:0.0; 
stroke:#000000; stroke-width:118.11; stroke-opacity:1; 
stroke-linecap:round; stroke-linejoin:round;">
<path d="M50714 42917
L50517 42635
" />
<path d="M50377 42917
L50377 42326
L50602 42326
L50658 42354
L50686 42382
L50714 42439
L50714 42523
L50686 42579
L50658 42607
L50602 42635
L50377 42635
" />
<path d="M51164 42607
L50967 42607
" />
<path d="M50967 42917
L50967 42326
L51248 42326
" />
<path d="M51923 42917
L51923 42326
L52261 42917
L52261 42326
" />
<path d="M52654 42326
L52767 42326
L52823 42354
L52879 42410
L52907 42523
L52907 42720
L52879 42832
L52823 42889
L52767 42917
L52654 42917
L52598 42889
L52542 42832
L52514 42720
L52514 42523
L52542 42410
L52598 42354
L52654 42326
" />
<path d="M53161 42917
L53161 42326
" />
<path d="M53414 42889
L53498 42917
L53639 42917
L53695 42889
L53723 42860
L53751 42804
L53751 42748
L53723 42692
L53695 42664
L53639 42635
L53526 42607
L53470 42579
L53442 42551
L53414 42495
L53414 42439
L53442 42382
L53470 42354
L53526 42326
L53667 42326
L53751 42354
" />
<path d="M54004 42607
L54201 42607
" />
<path d="M54285 42917
L54004 42917
L54004 42326
L54285 42326
" />
<path d="M54960 42889
L55045 42917
L55185 42917
L55242 42889
L55270 42860
L55298 42804
L55298 42748
L55270 42692
L55242 42664
L55185 42635
L55073 42607
L55017 42579
L54988 42551
L54960 42495
L54960 42439
L54988 42382
L55017 42354
L55073 42326
L55213 42326
L55298 42354
" />
<path d="M55663 42326
L55776 42326
L55832 42354
L55888 42410
L55916 42523
L55916 42720
L55888 42832
L55832 42889
L55776 42917
L55663 42917
L55607 42889
L55551 42832
L55523 42720
L55523 42523
L55551 42410
L55607 42354
L55663 42326
" />
<path d="M56170 42326
L56170 42804
L56198 42860
L56226 42889
L56282 42917
L56395 42917
L56451 42889
L56479 42860
L56507 42804
L56507 42326
" />
<path d="M57126 42917
L56929 42635
" />
<path d="M56788 42917
L56788 42326
L57013 42326
L57069 42354
L57098 42382
L57126 42439
L57126 42523
L57098 42579
L57069 42607
L57013 42635
L56788 42635
" />
<path d="M57716 42860
L57688 42889
L57604 42917
L57548 42917
L57463 42889
L57407 42832
L57379 42776
L57351 42664
L57351 42579
L57379 42467
L57407 42410
L57463 42354
L57548 42326
L57604 42326
L57688 42354
L57716 42382
" />
<path d="M57969 42607
L58166 42607
" />
<path d="M58251 42917
L57969 42917
L57969 42326
L58251 42326
" />
</g>
<g style="fill:#000000; fill-opacity:0.0; 
stroke:#000000; stroke-width:0; stroke-opacity:1; 
stroke-linecap:round; stroke-linejoin:round;">
</g>
<g style="fill:#000000; fill-opacity:1.0; 
stroke:#000000; stroke-width:0; stroke-opacity:1; 
stroke-linecap:round; stroke-linejoin:round;">
<polyline style="fill-rule:evenodd;"
points="58509,39296
58509,38803
58903,38803
58903,39296
58509,39296
" /> 
<polyline style="fill-rule:evenodd;"
points="59296,39296
59296,38803
59690,38803
59690,39296
59296,39296
" /> 
<polyline style="fill-rule:evenodd;"
points="51040,37803
51040,38296
50646,38296
50646,37803
51040,37803
" /> 
<polyline style="fill-rule:evenodd;"
points="50253,37803
50253,38296
49859,38296
49859,37803
50253,37803
" /> 
<polyline style="fill-rule:evenodd;"
points="54009,39646
54009,39153
54403,39153
54403,39646
54009,39646
" /> 
<polyline style="fill-rule:evenodd;"
points="54796,39646
54796,39153
55190,39153
55190,39646
54796,39646
" /> 
<polyline style="fill-rule:evenodd;"
points="58509,40046
58509,39553
58903,39553
58903,40046
58509,40046
" /> 
<polyline style="fill-rule:evenodd;"
points="59296,40046
59296,39553
59690,39553
59690,40046
59296,40046
" /> 
<polyline style="fill-rule:evenodd;"
points="52353,40459
52846,40459
52846,40853
52353,40853
52353,40459
" /> 
<polyline style="fill-rule:evenodd;"
points="52353,41246
52846,41246
52846,41640
52353,41640
52353,41246
" /> 
<polyline style="fill-rule:evenodd;"
points="57046,37590
56553,37590
56553,37196
57046,37196
57046,37590
" /> 
<polyline style="fill-rule:evenodd;"
points="57046,36803
56553,36803
56553,36409
57046,36409
57046,36803
" /> 
<polyline style="fill-rule:evenodd;"
points="61850,37150
61850,38150
60100,38150
60100,37150
61850,37150
" /> 
<polyline style="fill-rule:evenodd;"
points="61850,40650
61850,41650
60100,41650
60100,40650
61850,40650
" /> 
<polyline style="fill-rule:evenodd;"
points="61850,38900
61850,39900
60100,39900
60100,38900
61850,38900
" /> 
<polyline style="fill-rule:evenodd;"
points="58296,37981
57903,37981
57903,36800
58296,36800
58296,37981
" /> 
<polyline style="fill-rule:evenodd;"
points="59296,36800
58903,36800
58903,35618
59296,35618
59296,36800
" /> 
<polyline style="fill-rule:evenodd;"
points="57383,39570
57068,39570
57068,39216
57383,39216
57383,39570
" /> 
<polyline style="fill-rule:evenodd;"
points="58131,39570
57816,39570
57816,39216
58131,39216
58131,39570
" /> 
<polyline style="fill-rule:evenodd;"
points="57757,38783
57442,38783
57442,38429
57757,38429
57757,38783
" /> 
<polyline style="fill-rule:evenodd;"
points="52429,39183
52429,38868
52783,38868
52783,39183
52429,39183
" /> 
<polyline style="fill-rule:evenodd;"
points="52429,39931
52429,39616
52783,39616
52783,39931
52429,39931
" /> 
<polyline style="fill-rule:evenodd;"
points="53216,39557
53216,39242
53570,39242
53570,39557
53216,39557
" /> 
<polyline style="fill-rule:evenodd;"
points="52461,37194
52461,37705
52186,37705
52186,37194
52461,37194
" /> 
<polyline style="fill-rule:evenodd;"
points="51713,37194
51713,37705
51438,37705
51438,37194
51713,37194
" /> 
<polyline style="fill-rule:evenodd;"
points="53944,37338
54455,37338
54455,37613
53944,37613
53944,37338
" /> 
<polyline style="fill-rule:evenodd;"
points="53944,38086
54455,38086
54455,38361
53944,38361
53944,38086
" /> 
<polyline style="fill-rule:evenodd;"
points="55444,37338
55955,37338
55955,37613
55444,37613
55444,37338
" /> 
<polyline style="fill-rule:evenodd;"
points="55444,38086
55955,38086
55955,38361
55444,38361
55444,38086
" /> 
<polyline style="fill-rule:evenodd;"
points="56611,38744
56611,39255
56336,39255
56336,38744
56611,38744
" /> 
<polyline style="fill-rule:evenodd;"
points="55863,38744
55863,39255
55588,39255
55588,38744
55863,38744
" /> 
<polyline style="fill-rule:evenodd;"
points="56611,39544
56611,40055
56336,40055
56336,39544
56611,39544
" /> 
<polyline style="fill-rule:evenodd;"
points="55863,39544
55863,40055
55588,40055
55588,39544
55863,39544
" /> 
<polyline style="fill-rule:evenodd;"
points="53094,40538
53605,40538
53605,40813
53094,40813
53094,40538
" /> 
<polyline style="fill-rule:evenodd;"
points="53094,41286
53605,41286
53605,41561
53094,41561
53094,41286
" /> 
<polyline style="fill-rule:evenodd;"
points="55444,40488
55955,40488
55955,40763
55444,40763
55444,40488
" /> 
<polyline style="fill-rule:evenodd;"
points="55444,41236
55955,41236
55955,41511
55444,41511
55444,41236
" /> 
<polyline style="fill-rule:evenodd;"
points="57694,39988
58205,39988
58205,40263
57694,40263
57694,39988
" /> 
<polyline style="fill-rule:evenodd;"
points="57694,40736
58205,40736
58205,41011
57694,41011
57694,40736
" /> 
<polyline style="fill-rule:evenodd;"
points="51566,38629
51881,38629
51881,38983
51566,38983
51566,38629
" /> 
<polyline style="fill-rule:evenodd;"
points="50818,38629
51133,38629
51133,38983
50818,38983
50818,38629
" /> 
<polyline style="fill-rule:evenodd;"
points="51192,39416
51507,39416
51507,39770
51192,39770
51192,39416
" /> 
<polyline style="fill-rule:evenodd;"
points="53496,37590
53003,37590
53003,37196
53496,37196
53496,37590
" /> 
<polyline style="fill-rule:evenodd;"
points="53496,36803
53003,36803
53003,36409
53496,36409
53496,36803
" /> 
<polyline style="fill-rule:evenodd;"
points="55196,37590
54703,37590
54703,37196
55196,37196
55196,37590
" /> 
<polyline style="fill-rule:evenodd;"
points="55196,36803
54703,36803
54703,36409
55196,36409
55196,36803
" /> 
</g>
<g style="fill:#000000; fill-opacity:1.0; 
stroke:#000000; stroke-width:236.22; stroke-opacity:1; 
stroke-linecap:round; stroke-linejoin:round;">
</g>
<g style="fill:#000000; fill-opacity:0.0; 
stroke:#000000; stroke-width:236.22; stroke-opacity:1; 
stroke-linecap:round; stroke-linejoin:round;">
<path d="M57600 38606
L57600 37393
" />
<path d="M57600 37393
L57600 37450
" />
<path d="M57600 37450
L57600 37393
" />
<path d="M57600 37393
L58096 37393
" />
<path d="M58096 37393
L58100 37390
" />
<path d="M56717 37475
L56800 37393
" />
<path d="M54200 38224
L54200 39393
" />
<path d="M54200 39393
L54206 39400
" />
<path d="M54206 39400
L53393 39400
" />
<path d="M55725 39800
L55725 40600
" />
<path d="M55725 40600
L55700 40625
" />
<path d="M55725 39000
L55725 38250
" />
<path d="M55725 38250
L55700 38224
" />
<path d="M54993 39400
L55725 39400
" />
<path d="M55725 39400
L55650 39400
" />
<path d="M55650 39400
L55725 39400
" />
<path d="M55725 39050
L55725 39400
" />
<path d="M55725 39400
L55725 39800
" />
</g>
<g style="fill:#000000; fill-opacity:0.0; 
stroke:#000000; stroke-width:314.961; stroke-opacity:1; 
stroke-linecap:round; stroke-linejoin:round;">
<path d="M58706 39800
L58706 39593
" />
<path d="M58706 39593
L58706 39050
" />
<path d="M57974 39393
L58656 39393
" />
<path d="M58706 39343
L58706 39050
" />
<path d="M58656 39393
L58706 39343
" />
</g>
<g style="fill:#000000; fill-opacity:0.0; 
stroke:#000000; stroke-width:236.22; stroke-opacity:1; 
stroke-linecap:round; stroke-linejoin:round;">
<path d="M57974 39393
L57974 40101
" />
<path d="M57974 40101
L57950 40125
" />
</g>
<g style="fill:#000000; fill-opacity:0.0; 
stroke:#000000; stroke-width:314.961; stroke-opacity:1; 
stroke-linecap:round; stroke-linejoin:round;">
<path d="M57980 39400
L57974 39393
" />
<path d="M59493 39400
L61850 39400
" />
<path d="M59493 39050
L59493 39400
" />
<path d="M59493 39400
L59493 39800
" />
</g>
<g style="fill:#000000; fill-opacity:0.0; 
stroke:#000000; stroke-width:236.22; stroke-opacity:1; 
stroke-linecap:round; stroke-linejoin:round;">
<path d="M53350 40675
L52619 40675
" />
<path d="M52619 40675
L52600 40656
" />
<path d="M52606 39774
L52606 40650
" />
<path d="M52606 40650
L52600 40656
" />
<path d="M57225 39393
L56474 39393
" />
<path d="M56550 39400
L56474 39400
" />
<path d="M56480 39400
L56550 39400
" />
<path d="M56474 39393
L56480 39400
" />
<path d="M56474 39050
L56474 39400
" />
<path d="M56474 39400
L56474 39800
" />
<path d="M51724 38806
L52386 38806
" />
<path d="M52386 38806
L52606 39025
" />
<path d="M52604 39024
L52606 39025
" />
<path d="M50843 38050
L51350 38050
" />
<path d="M51575 37824
L51575 37450
" />
<path d="M51350 38050
L51575 37824
" />
<path d="M50843 38050
L50843 38674
" />
<path d="M50843 38674
L50975 38806
" />
</g>
<g style="fill:#000000; fill-opacity:1.0; 
stroke:#000000; stroke-width:100; stroke-opacity:1; 
stroke-linecap:round; stroke-linejoin:round;">
<polyline style="fill-rule:evenodd;"
points="58600,38150
56400,38150
56400,37800
56396,37780
56384,37764
56368,37753
56350,37750
55150,37750
55130,37753
55114,37765
55103,37781
55100,37800
55100,38800
54750,38800
54750,37800
54746,37780
54734,37764
54718,37753
54700,37750
52000,37750
52000,37150
57500,37150
57519,37146
57535,37134
57546,37118
57550,37100
57550,36750
58600,36750
58600,38150
" /> 
<polyline style="fill-rule:evenodd;"
points="61900,38450
58850,38450
58850,36150
58846,36130
58834,36114
58818,36103
58800,36100
57250,36100
57230,36103
57214,36115
57203,36131
57200,36150
57200,36800
50350,36800
50330,36803
50314,36815
50303,36831
50300,36850
50300,40100
50303,40119
50315,40135
50331,40146
50350,40150
51700,40150
51700,41150
51703,41169
51715,41185
51731,41196
51750,41200
54000,41200
54019,41196
54035,41184
54046,41168
54050,41150
54050,40000
55150,40000
55150,41150
55153,41169
55165,41185
55181,41196
55200,41200
56350,41200
56369,41196
56385,41184
56396,41168
56400,41150
56400,40650
58600,40650
58619,40646
58635,40634
58646,40618
58650,40600
58650,40350
61900,40350
61900,43650
49850,43650
49850,42027
50086,42027
50086,43331
58513,43331
58513,42027
50086,42027
49850,42027
49850,35150
61900,35150
61900,38450
" /> 
</g> 
</svg>
