G04 #@! TF.FileFunction,Copper,L1,Top,Signal*
%FSLAX46Y46*%
G04 Gerber Fmt 4.6, Leading zero omitted, Abs format (unit mm)*
G04 Created by KiCad (PCBNEW 4.0.6) date Wed Jul 14 20:47:06 2021*
%MOMM*%
%LPD*%
G01*
G04 APERTURE LIST*
%ADD10C,0.020000*%
%ADD11C,0.150000*%
%ADD12C,0.300000*%
%ADD13R,1.000000X1.250000*%
%ADD14R,1.250000X1.000000*%
%ADD15R,4.445000X2.540000*%
%ADD16R,1.000000X3.000000*%
%ADD17R,0.800000X0.900000*%
%ADD18R,0.900000X0.800000*%
%ADD19R,0.700000X1.300000*%
%ADD20R,1.300000X0.700000*%
%ADD21C,0.600000*%
%ADD22C,0.800000*%
%ADD23C,0.254000*%
G04 APERTURE END LIST*
D10*
D11*
X157988000Y-111633000D02*
X157988000Y-88519000D01*
X125857000Y-111633000D02*
X157988000Y-111633000D01*
X125857000Y-88519000D02*
X125857000Y-111633000D01*
X157988000Y-88519000D02*
X125857000Y-88519000D01*
D12*
X128814857Y-109009571D02*
X128314857Y-108295286D01*
X127957714Y-109009571D02*
X127957714Y-107509571D01*
X128529142Y-107509571D01*
X128672000Y-107581000D01*
X128743428Y-107652429D01*
X128814857Y-107795286D01*
X128814857Y-108009571D01*
X128743428Y-108152429D01*
X128672000Y-108223857D01*
X128529142Y-108295286D01*
X127957714Y-108295286D01*
X129957714Y-108223857D02*
X129457714Y-108223857D01*
X129457714Y-109009571D02*
X129457714Y-107509571D01*
X130172000Y-107509571D01*
X131886285Y-109009571D02*
X131886285Y-107509571D01*
X132743428Y-109009571D01*
X132743428Y-107509571D01*
X133743428Y-107509571D02*
X134029142Y-107509571D01*
X134172000Y-107581000D01*
X134314857Y-107723857D01*
X134386285Y-108009571D01*
X134386285Y-108509571D01*
X134314857Y-108795286D01*
X134172000Y-108938143D01*
X134029142Y-109009571D01*
X133743428Y-109009571D01*
X133600571Y-108938143D01*
X133457714Y-108795286D01*
X133386285Y-108509571D01*
X133386285Y-108009571D01*
X133457714Y-107723857D01*
X133600571Y-107581000D01*
X133743428Y-107509571D01*
X135029143Y-109009571D02*
X135029143Y-107509571D01*
X135672000Y-108938143D02*
X135886286Y-109009571D01*
X136243429Y-109009571D01*
X136386286Y-108938143D01*
X136457715Y-108866714D01*
X136529143Y-108723857D01*
X136529143Y-108581000D01*
X136457715Y-108438143D01*
X136386286Y-108366714D01*
X136243429Y-108295286D01*
X135957715Y-108223857D01*
X135814857Y-108152429D01*
X135743429Y-108081000D01*
X135672000Y-107938143D01*
X135672000Y-107795286D01*
X135743429Y-107652429D01*
X135814857Y-107581000D01*
X135957715Y-107509571D01*
X136314857Y-107509571D01*
X136529143Y-107581000D01*
X137172000Y-108223857D02*
X137672000Y-108223857D01*
X137886286Y-109009571D02*
X137172000Y-109009571D01*
X137172000Y-107509571D01*
X137886286Y-107509571D01*
X139600571Y-108938143D02*
X139814857Y-109009571D01*
X140172000Y-109009571D01*
X140314857Y-108938143D01*
X140386286Y-108866714D01*
X140457714Y-108723857D01*
X140457714Y-108581000D01*
X140386286Y-108438143D01*
X140314857Y-108366714D01*
X140172000Y-108295286D01*
X139886286Y-108223857D01*
X139743428Y-108152429D01*
X139672000Y-108081000D01*
X139600571Y-107938143D01*
X139600571Y-107795286D01*
X139672000Y-107652429D01*
X139743428Y-107581000D01*
X139886286Y-107509571D01*
X140243428Y-107509571D01*
X140457714Y-107581000D01*
X141386285Y-107509571D02*
X141671999Y-107509571D01*
X141814857Y-107581000D01*
X141957714Y-107723857D01*
X142029142Y-108009571D01*
X142029142Y-108509571D01*
X141957714Y-108795286D01*
X141814857Y-108938143D01*
X141671999Y-109009571D01*
X141386285Y-109009571D01*
X141243428Y-108938143D01*
X141100571Y-108795286D01*
X141029142Y-108509571D01*
X141029142Y-108009571D01*
X141100571Y-107723857D01*
X141243428Y-107581000D01*
X141386285Y-107509571D01*
X142672000Y-107509571D02*
X142672000Y-108723857D01*
X142743428Y-108866714D01*
X142814857Y-108938143D01*
X142957714Y-109009571D01*
X143243428Y-109009571D01*
X143386286Y-108938143D01*
X143457714Y-108866714D01*
X143529143Y-108723857D01*
X143529143Y-107509571D01*
X145100572Y-109009571D02*
X144600572Y-108295286D01*
X144243429Y-109009571D02*
X144243429Y-107509571D01*
X144814857Y-107509571D01*
X144957715Y-107581000D01*
X145029143Y-107652429D01*
X145100572Y-107795286D01*
X145100572Y-108009571D01*
X145029143Y-108152429D01*
X144957715Y-108223857D01*
X144814857Y-108295286D01*
X144243429Y-108295286D01*
X146600572Y-108866714D02*
X146529143Y-108938143D01*
X146314857Y-109009571D01*
X146172000Y-109009571D01*
X145957715Y-108938143D01*
X145814857Y-108795286D01*
X145743429Y-108652429D01*
X145672000Y-108366714D01*
X145672000Y-108152429D01*
X145743429Y-107866714D01*
X145814857Y-107723857D01*
X145957715Y-107581000D01*
X146172000Y-107509571D01*
X146314857Y-107509571D01*
X146529143Y-107581000D01*
X146600572Y-107652429D01*
X147243429Y-108223857D02*
X147743429Y-108223857D01*
X147957715Y-109009571D02*
X147243429Y-109009571D01*
X147243429Y-107509571D01*
X147957715Y-107509571D01*
D13*
X149114000Y-99187000D03*
X151114000Y-99187000D03*
X129143000Y-96647000D03*
X127143000Y-96647000D03*
X137684000Y-100076000D03*
X139684000Y-100076000D03*
X149114000Y-101092000D03*
X151114000Y-101092000D03*
D14*
X133604000Y-103267000D03*
X133604000Y-105267000D03*
X144272000Y-94980000D03*
X144272000Y-92980000D03*
D15*
X154876500Y-95631000D03*
X154876500Y-104521000D03*
X154876500Y-100076000D03*
D16*
X147574000Y-94972000D03*
X150114000Y-91972000D03*
D17*
X145354000Y-100060000D03*
X147254000Y-100060000D03*
X146304000Y-98060000D03*
D18*
X133620000Y-99126000D03*
X133620000Y-101026000D03*
X135620000Y-100076000D03*
D19*
X132903000Y-95123000D03*
X131003000Y-95123000D03*
D20*
X137668000Y-95189000D03*
X137668000Y-97089000D03*
X141478000Y-95189000D03*
X141478000Y-97089000D03*
D19*
X143444000Y-99060000D03*
X141544000Y-99060000D03*
X143444000Y-101092000D03*
X141544000Y-101092000D03*
D20*
X135509000Y-103317000D03*
X135509000Y-105217000D03*
X141478000Y-103190000D03*
X141478000Y-105090000D03*
X147193000Y-101920000D03*
X147193000Y-103820000D03*
D17*
X131379000Y-98568000D03*
X129479000Y-98568000D03*
X130429000Y-100568000D03*
D14*
X135255000Y-94980000D03*
X135255000Y-92980000D03*
X139573000Y-94980000D03*
X139573000Y-92980000D03*
D21*
X146304000Y-98060000D02*
X146304000Y-94980000D01*
X146304000Y-94980000D02*
X146304000Y-95123000D01*
X146304000Y-95123000D02*
X146304000Y-94980000D01*
X146304000Y-94980000D02*
X147566000Y-94980000D01*
X147566000Y-94980000D02*
X147574000Y-94972000D01*
X144063000Y-95189000D02*
X144272000Y-94980000D01*
X137668000Y-97089000D02*
X137668000Y-100060000D01*
X137668000Y-100060000D02*
X137684000Y-100076000D01*
X137684000Y-100076000D02*
X135620000Y-100076000D01*
X141544000Y-101092000D02*
X141544000Y-103124000D01*
X141544000Y-103124000D02*
X141478000Y-103190000D01*
X141544000Y-99060000D02*
X141544000Y-97155000D01*
X141544000Y-97155000D02*
X141478000Y-97089000D01*
X139684000Y-100076000D02*
X141544000Y-100076000D01*
X141544000Y-100076000D02*
X141351000Y-100076000D01*
X141351000Y-100076000D02*
X141544000Y-100076000D01*
X141544000Y-99187000D02*
X141544000Y-100076000D01*
X141544000Y-100076000D02*
X141544000Y-101092000D01*
D22*
X149114000Y-101092000D02*
X149114000Y-100568000D01*
X149114000Y-100568000D02*
X149114000Y-99187000D01*
X147254000Y-100060000D02*
X148987000Y-100060000D01*
X149114000Y-99933000D02*
X149114000Y-99187000D01*
X148987000Y-100060000D02*
X149114000Y-99933000D01*
D21*
X147254000Y-100060000D02*
X147254000Y-101859000D01*
X147254000Y-101859000D02*
X147193000Y-101920000D01*
D22*
X147270000Y-100076000D02*
X147254000Y-100060000D01*
X151114000Y-100076000D02*
X157099000Y-100076000D01*
X151114000Y-99187000D02*
X151114000Y-100076000D01*
X151114000Y-100076000D02*
X151114000Y-101092000D01*
D21*
X135509000Y-103317000D02*
X133654000Y-103317000D01*
X133654000Y-103317000D02*
X133604000Y-103267000D01*
X133620000Y-101026000D02*
X133620000Y-103251000D01*
X133620000Y-103251000D02*
X133604000Y-103267000D01*
X145354000Y-100060000D02*
X143444000Y-100060000D01*
X143637000Y-100076000D02*
X143444000Y-100076000D01*
X143460000Y-100076000D02*
X143637000Y-100076000D01*
X143444000Y-100060000D02*
X143460000Y-100076000D01*
X143444000Y-99187000D02*
X143444000Y-100076000D01*
X143444000Y-100076000D02*
X143444000Y-101092000D01*
X131379000Y-98568000D02*
X133062000Y-98568000D01*
X133062000Y-98568000D02*
X133620000Y-99126000D01*
X133615000Y-99121000D02*
X133620000Y-99126000D01*
X129143000Y-96647000D02*
X130429000Y-96647000D01*
X131003000Y-96073000D02*
X131003000Y-95123000D01*
X130429000Y-96647000D02*
X131003000Y-96073000D01*
X129143000Y-96647000D02*
X129143000Y-98232000D01*
X129143000Y-98232000D02*
X129479000Y-98568000D01*
D23*
G36*
X148844000Y-96901000D02*
X143256000Y-96901000D01*
X143256000Y-96012000D01*
X143245994Y-95962590D01*
X143217553Y-95920965D01*
X143175159Y-95893685D01*
X143129000Y-95885000D01*
X140081000Y-95885000D01*
X140031590Y-95895006D01*
X139989965Y-95923447D01*
X139962685Y-95965841D01*
X139954000Y-96012000D01*
X139954000Y-98552000D01*
X139065000Y-98552000D01*
X139065000Y-96012000D01*
X139054994Y-95962590D01*
X139026553Y-95920965D01*
X138984159Y-95893685D01*
X138938000Y-95885000D01*
X132080000Y-95885000D01*
X132080000Y-94361000D01*
X146050000Y-94361000D01*
X146099410Y-94350994D01*
X146141035Y-94322553D01*
X146168315Y-94280159D01*
X146177000Y-94234000D01*
X146177000Y-93345000D01*
X148844000Y-93345000D01*
X148844000Y-96901000D01*
X148844000Y-96901000D01*
G37*
X148844000Y-96901000D02*
X143256000Y-96901000D01*
X143256000Y-96012000D01*
X143245994Y-95962590D01*
X143217553Y-95920965D01*
X143175159Y-95893685D01*
X143129000Y-95885000D01*
X140081000Y-95885000D01*
X140031590Y-95895006D01*
X139989965Y-95923447D01*
X139962685Y-95965841D01*
X139954000Y-96012000D01*
X139954000Y-98552000D01*
X139065000Y-98552000D01*
X139065000Y-96012000D01*
X139054994Y-95962590D01*
X139026553Y-95920965D01*
X138984159Y-95893685D01*
X138938000Y-95885000D01*
X132080000Y-95885000D01*
X132080000Y-94361000D01*
X146050000Y-94361000D01*
X146099410Y-94350994D01*
X146141035Y-94322553D01*
X146168315Y-94280159D01*
X146177000Y-94234000D01*
X146177000Y-93345000D01*
X148844000Y-93345000D01*
X148844000Y-96901000D01*
G36*
X157226000Y-97663000D02*
X149479000Y-97663000D01*
X149479000Y-91821000D01*
X149468994Y-91771590D01*
X149440553Y-91729965D01*
X149398159Y-91702685D01*
X149352000Y-91694000D01*
X145415000Y-91694000D01*
X145365590Y-91704006D01*
X145323965Y-91732447D01*
X145296685Y-91774841D01*
X145288000Y-91821000D01*
X145288000Y-93472000D01*
X127889000Y-93472000D01*
X127839590Y-93482006D01*
X127797965Y-93510447D01*
X127770685Y-93552841D01*
X127762000Y-93599000D01*
X127762000Y-101854000D01*
X127772006Y-101903410D01*
X127800447Y-101945035D01*
X127842841Y-101972315D01*
X127889000Y-101981000D01*
X131318000Y-101981000D01*
X131318000Y-104521000D01*
X131328006Y-104570410D01*
X131356447Y-104612035D01*
X131398841Y-104639315D01*
X131445000Y-104648000D01*
X137160000Y-104648000D01*
X137209410Y-104637994D01*
X137251035Y-104609553D01*
X137278315Y-104567159D01*
X137287000Y-104521000D01*
X137287000Y-101600000D01*
X140081000Y-101600000D01*
X140081000Y-104521000D01*
X140091006Y-104570410D01*
X140119447Y-104612035D01*
X140161841Y-104639315D01*
X140208000Y-104648000D01*
X143129000Y-104648000D01*
X143178410Y-104637994D01*
X143220035Y-104609553D01*
X143247315Y-104567159D01*
X143256000Y-104521000D01*
X143256000Y-103251000D01*
X148844000Y-103251000D01*
X148893410Y-103240994D01*
X148935035Y-103212553D01*
X148962315Y-103170159D01*
X148971000Y-103124000D01*
X148971000Y-102489000D01*
X157226000Y-102489000D01*
X157226000Y-110871000D01*
X126619000Y-110871000D01*
X126619000Y-106750000D01*
X127219571Y-106750000D01*
X127219571Y-110062000D01*
X148624429Y-110062000D01*
X148624429Y-106750000D01*
X127219571Y-106750000D01*
X126619000Y-106750000D01*
X126619000Y-89281000D01*
X157226000Y-89281000D01*
X157226000Y-97663000D01*
X157226000Y-97663000D01*
G37*
X157226000Y-97663000D02*
X149479000Y-97663000D01*
X149479000Y-91821000D01*
X149468994Y-91771590D01*
X149440553Y-91729965D01*
X149398159Y-91702685D01*
X149352000Y-91694000D01*
X145415000Y-91694000D01*
X145365590Y-91704006D01*
X145323965Y-91732447D01*
X145296685Y-91774841D01*
X145288000Y-91821000D01*
X145288000Y-93472000D01*
X127889000Y-93472000D01*
X127839590Y-93482006D01*
X127797965Y-93510447D01*
X127770685Y-93552841D01*
X127762000Y-93599000D01*
X127762000Y-101854000D01*
X127772006Y-101903410D01*
X127800447Y-101945035D01*
X127842841Y-101972315D01*
X127889000Y-101981000D01*
X131318000Y-101981000D01*
X131318000Y-104521000D01*
X131328006Y-104570410D01*
X131356447Y-104612035D01*
X131398841Y-104639315D01*
X131445000Y-104648000D01*
X137160000Y-104648000D01*
X137209410Y-104637994D01*
X137251035Y-104609553D01*
X137278315Y-104567159D01*
X137287000Y-104521000D01*
X137287000Y-101600000D01*
X140081000Y-101600000D01*
X140081000Y-104521000D01*
X140091006Y-104570410D01*
X140119447Y-104612035D01*
X140161841Y-104639315D01*
X140208000Y-104648000D01*
X143129000Y-104648000D01*
X143178410Y-104637994D01*
X143220035Y-104609553D01*
X143247315Y-104567159D01*
X143256000Y-104521000D01*
X143256000Y-103251000D01*
X148844000Y-103251000D01*
X148893410Y-103240994D01*
X148935035Y-103212553D01*
X148962315Y-103170159D01*
X148971000Y-103124000D01*
X148971000Y-102489000D01*
X157226000Y-102489000D01*
X157226000Y-110871000D01*
X126619000Y-110871000D01*
X126619000Y-106750000D01*
X127219571Y-106750000D01*
X127219571Y-110062000D01*
X148624429Y-110062000D01*
X148624429Y-106750000D01*
X127219571Y-106750000D01*
X126619000Y-106750000D01*
X126619000Y-89281000D01*
X157226000Y-89281000D01*
X157226000Y-97663000D01*
M02*
