G04 #@! TF.FileFunction,Other,Fab,Top*
%FSLAX46Y46*%
G04 Gerber Fmt 4.6, Leading zero omitted, Abs format (unit mm)*
G04 Created by KiCad (PCBNEW 4.0.6) date Wed Jul 14 20:47:06 2021*
%MOMM*%
%LPD*%
G01*
G04 APERTURE LIST*
%ADD10C,0.020000*%
%ADD11C,0.150000*%
%ADD12C,0.100000*%
G04 APERTURE END LIST*
D10*
D11*
X157988000Y-111633000D02*
X157988000Y-88519000D01*
X125857000Y-111633000D02*
X157988000Y-111633000D01*
X125857000Y-88519000D02*
X125857000Y-111633000D01*
X157988000Y-88519000D02*
X125857000Y-88519000D01*
D12*
X149114000Y-99807000D02*
X149114000Y-98567000D01*
X151114000Y-99807000D02*
X149114000Y-99807000D01*
X151114000Y-98567000D02*
X151114000Y-99807000D01*
X149114000Y-98567000D02*
X151114000Y-98567000D01*
X129143000Y-96027000D02*
X129143000Y-97267000D01*
X127143000Y-96027000D02*
X129143000Y-96027000D01*
X127143000Y-97267000D02*
X127143000Y-96027000D01*
X129143000Y-97267000D02*
X127143000Y-97267000D01*
X137684000Y-100696000D02*
X137684000Y-99456000D01*
X139684000Y-100696000D02*
X137684000Y-100696000D01*
X139684000Y-99456000D02*
X139684000Y-100696000D01*
X137684000Y-99456000D02*
X139684000Y-99456000D01*
X149114000Y-101712000D02*
X149114000Y-100472000D01*
X151114000Y-101712000D02*
X149114000Y-101712000D01*
X151114000Y-100472000D02*
X151114000Y-101712000D01*
X149114000Y-100472000D02*
X151114000Y-100472000D01*
X132984000Y-103267000D02*
X134224000Y-103267000D01*
X132984000Y-105267000D02*
X132984000Y-103267000D01*
X134224000Y-105267000D02*
X132984000Y-105267000D01*
X134224000Y-103267000D02*
X134224000Y-105267000D01*
X144892000Y-94980000D02*
X143652000Y-94980000D01*
X144892000Y-92980000D02*
X144892000Y-94980000D01*
X143652000Y-92980000D02*
X144892000Y-92980000D01*
X143652000Y-94980000D02*
X143652000Y-92980000D01*
X146304000Y-94742000D02*
X151384000Y-94742000D01*
X151384000Y-94742000D02*
X151384000Y-92202000D01*
X151384000Y-92202000D02*
X146304000Y-92202000D01*
X146304000Y-92202000D02*
X146304000Y-94742000D01*
X147254000Y-94742000D02*
X147894000Y-94742000D01*
X147894000Y-94742000D02*
X147894000Y-96122000D01*
X147894000Y-96122000D02*
X147254000Y-96122000D01*
X147254000Y-96122000D02*
X147254000Y-94742000D01*
X149794000Y-92202000D02*
X150434000Y-92202000D01*
X150434000Y-92202000D02*
X150434000Y-90822000D01*
X150434000Y-90822000D02*
X149794000Y-90822000D01*
X149794000Y-90822000D02*
X149794000Y-92202000D01*
X145354000Y-99760000D02*
X147804000Y-99760000D01*
X144784000Y-99210000D02*
X144784000Y-98360000D01*
X145354000Y-99760000D02*
X144784000Y-99210000D01*
X144784000Y-98360000D02*
X147824000Y-98360000D01*
X147824000Y-99760000D02*
X147824000Y-98360000D01*
X133920000Y-99126000D02*
X133920000Y-101576000D01*
X134470000Y-98556000D02*
X135320000Y-98556000D01*
X133920000Y-99126000D02*
X134470000Y-98556000D01*
X135320000Y-98556000D02*
X135320000Y-101596000D01*
X133920000Y-101596000D02*
X135320000Y-101596000D01*
X132953000Y-94503000D02*
X132953000Y-95743000D01*
X130953000Y-94503000D02*
X132953000Y-94503000D01*
X130953000Y-95743000D02*
X130953000Y-94503000D01*
X132953000Y-95743000D02*
X130953000Y-95743000D01*
X137048000Y-95139000D02*
X138288000Y-95139000D01*
X137048000Y-97139000D02*
X137048000Y-95139000D01*
X138288000Y-97139000D02*
X137048000Y-97139000D01*
X138288000Y-95139000D02*
X138288000Y-97139000D01*
X140858000Y-95139000D02*
X142098000Y-95139000D01*
X140858000Y-97139000D02*
X140858000Y-95139000D01*
X142098000Y-97139000D02*
X140858000Y-97139000D01*
X142098000Y-95139000D02*
X142098000Y-97139000D01*
X143494000Y-98440000D02*
X143494000Y-99680000D01*
X141494000Y-98440000D02*
X143494000Y-98440000D01*
X141494000Y-99680000D02*
X141494000Y-98440000D01*
X143494000Y-99680000D02*
X141494000Y-99680000D01*
X143494000Y-100472000D02*
X143494000Y-101712000D01*
X141494000Y-100472000D02*
X143494000Y-100472000D01*
X141494000Y-101712000D02*
X141494000Y-100472000D01*
X143494000Y-101712000D02*
X141494000Y-101712000D01*
X134889000Y-103267000D02*
X136129000Y-103267000D01*
X134889000Y-105267000D02*
X134889000Y-103267000D01*
X136129000Y-105267000D02*
X134889000Y-105267000D01*
X136129000Y-103267000D02*
X136129000Y-105267000D01*
X140858000Y-103140000D02*
X142098000Y-103140000D01*
X140858000Y-105140000D02*
X140858000Y-103140000D01*
X142098000Y-105140000D02*
X140858000Y-105140000D01*
X142098000Y-103140000D02*
X142098000Y-105140000D01*
X146573000Y-101870000D02*
X147813000Y-101870000D01*
X146573000Y-103870000D02*
X146573000Y-101870000D01*
X147813000Y-103870000D02*
X146573000Y-103870000D01*
X147813000Y-101870000D02*
X147813000Y-103870000D01*
X131379000Y-98868000D02*
X128929000Y-98868000D01*
X131949000Y-99418000D02*
X131949000Y-100268000D01*
X131379000Y-98868000D02*
X131949000Y-99418000D01*
X131949000Y-100268000D02*
X128909000Y-100268000D01*
X128909000Y-98868000D02*
X128909000Y-100268000D01*
X135875000Y-94980000D02*
X134635000Y-94980000D01*
X135875000Y-92980000D02*
X135875000Y-94980000D01*
X134635000Y-92980000D02*
X135875000Y-92980000D01*
X134635000Y-94980000D02*
X134635000Y-92980000D01*
X140193000Y-94980000D02*
X138953000Y-94980000D01*
X140193000Y-92980000D02*
X140193000Y-94980000D01*
X138953000Y-92980000D02*
X140193000Y-92980000D01*
X138953000Y-94980000D02*
X138953000Y-92980000D01*
D11*
X149582143Y-97321666D02*
X149629762Y-97369285D01*
X149677381Y-97512142D01*
X149677381Y-97607380D01*
X149629762Y-97750238D01*
X149534524Y-97845476D01*
X149439286Y-97893095D01*
X149248810Y-97940714D01*
X149105952Y-97940714D01*
X148915476Y-97893095D01*
X148820238Y-97845476D01*
X148725000Y-97750238D01*
X148677381Y-97607380D01*
X148677381Y-97512142D01*
X148725000Y-97369285D01*
X148772619Y-97321666D01*
X149105952Y-96750238D02*
X149058333Y-96845476D01*
X149010714Y-96893095D01*
X148915476Y-96940714D01*
X148867857Y-96940714D01*
X148772619Y-96893095D01*
X148725000Y-96845476D01*
X148677381Y-96750238D01*
X148677381Y-96559761D01*
X148725000Y-96464523D01*
X148772619Y-96416904D01*
X148867857Y-96369285D01*
X148915476Y-96369285D01*
X149010714Y-96416904D01*
X149058333Y-96464523D01*
X149105952Y-96559761D01*
X149105952Y-96750238D01*
X149153571Y-96845476D01*
X149201190Y-96893095D01*
X149296429Y-96940714D01*
X149486905Y-96940714D01*
X149582143Y-96893095D01*
X149629762Y-96845476D01*
X149677381Y-96750238D01*
X149677381Y-96559761D01*
X149629762Y-96464523D01*
X149582143Y-96416904D01*
X149486905Y-96369285D01*
X149296429Y-96369285D01*
X149201190Y-96416904D01*
X149153571Y-96464523D01*
X149105952Y-96559761D01*
X151201381Y-97385047D02*
X151201381Y-97956476D01*
X151201381Y-97670762D02*
X150201381Y-97670762D01*
X150344238Y-97766000D01*
X150439476Y-97861238D01*
X150487095Y-97956476D01*
X150201381Y-96766000D02*
X150201381Y-96670761D01*
X150249000Y-96575523D01*
X150296619Y-96527904D01*
X150391857Y-96480285D01*
X150582333Y-96432666D01*
X150820429Y-96432666D01*
X151010905Y-96480285D01*
X151106143Y-96527904D01*
X151153762Y-96575523D01*
X151201381Y-96670761D01*
X151201381Y-96766000D01*
X151153762Y-96861238D01*
X151106143Y-96908857D01*
X151010905Y-96956476D01*
X150820429Y-97004095D01*
X150582333Y-97004095D01*
X150391857Y-96956476D01*
X150296619Y-96908857D01*
X150249000Y-96861238D01*
X150201381Y-96766000D01*
X150201381Y-95813619D02*
X150201381Y-95718380D01*
X150249000Y-95623142D01*
X150296619Y-95575523D01*
X150391857Y-95527904D01*
X150582333Y-95480285D01*
X150820429Y-95480285D01*
X151010905Y-95527904D01*
X151106143Y-95575523D01*
X151153762Y-95623142D01*
X151201381Y-95718380D01*
X151201381Y-95813619D01*
X151153762Y-95908857D01*
X151106143Y-95956476D01*
X151010905Y-96004095D01*
X150820429Y-96051714D01*
X150582333Y-96051714D01*
X150391857Y-96004095D01*
X150296619Y-95956476D01*
X150249000Y-95908857D01*
X150201381Y-95813619D01*
X150534714Y-95051714D02*
X151201381Y-95051714D01*
X150629952Y-95051714D02*
X150582333Y-95004095D01*
X150534714Y-94908857D01*
X150534714Y-94765999D01*
X150582333Y-94670761D01*
X150677571Y-94623142D01*
X151201381Y-94623142D01*
X129611381Y-93321047D02*
X129611381Y-93892476D01*
X129611381Y-93606762D02*
X128611381Y-93606762D01*
X128754238Y-93702000D01*
X128849476Y-93797238D01*
X128897095Y-93892476D01*
X128611381Y-92702000D02*
X128611381Y-92606761D01*
X128659000Y-92511523D01*
X128706619Y-92463904D01*
X128801857Y-92416285D01*
X128992333Y-92368666D01*
X129230429Y-92368666D01*
X129420905Y-92416285D01*
X129516143Y-92463904D01*
X129563762Y-92511523D01*
X129611381Y-92606761D01*
X129611381Y-92702000D01*
X129563762Y-92797238D01*
X129516143Y-92844857D01*
X129420905Y-92892476D01*
X129230429Y-92940095D01*
X128992333Y-92940095D01*
X128801857Y-92892476D01*
X128706619Y-92844857D01*
X128659000Y-92797238D01*
X128611381Y-92702000D01*
X128611381Y-91749619D02*
X128611381Y-91654380D01*
X128659000Y-91559142D01*
X128706619Y-91511523D01*
X128801857Y-91463904D01*
X128992333Y-91416285D01*
X129230429Y-91416285D01*
X129420905Y-91463904D01*
X129516143Y-91511523D01*
X129563762Y-91559142D01*
X129611381Y-91654380D01*
X129611381Y-91749619D01*
X129563762Y-91844857D01*
X129516143Y-91892476D01*
X129420905Y-91940095D01*
X129230429Y-91987714D01*
X128992333Y-91987714D01*
X128801857Y-91940095D01*
X128706619Y-91892476D01*
X128659000Y-91844857D01*
X128611381Y-91749619D01*
X128944714Y-90987714D02*
X129611381Y-90987714D01*
X129039952Y-90987714D02*
X128992333Y-90940095D01*
X128944714Y-90844857D01*
X128944714Y-90701999D01*
X128992333Y-90606761D01*
X129087571Y-90559142D01*
X129611381Y-90559142D01*
X127992143Y-93130666D02*
X128039762Y-93178285D01*
X128087381Y-93321142D01*
X128087381Y-93416380D01*
X128039762Y-93559238D01*
X127944524Y-93654476D01*
X127849286Y-93702095D01*
X127658810Y-93749714D01*
X127515952Y-93749714D01*
X127325476Y-93702095D01*
X127230238Y-93654476D01*
X127135000Y-93559238D01*
X127087381Y-93416380D01*
X127087381Y-93321142D01*
X127135000Y-93178285D01*
X127182619Y-93130666D01*
X128087381Y-92178285D02*
X128087381Y-92749714D01*
X128087381Y-92464000D02*
X127087381Y-92464000D01*
X127230238Y-92559238D01*
X127325476Y-92654476D01*
X127373095Y-92749714D01*
X139136381Y-106148047D02*
X139136381Y-106719476D01*
X139136381Y-106433762D02*
X138136381Y-106433762D01*
X138279238Y-106529000D01*
X138374476Y-106624238D01*
X138422095Y-106719476D01*
X138136381Y-105529000D02*
X138136381Y-105433761D01*
X138184000Y-105338523D01*
X138231619Y-105290904D01*
X138326857Y-105243285D01*
X138517333Y-105195666D01*
X138755429Y-105195666D01*
X138945905Y-105243285D01*
X139041143Y-105290904D01*
X139088762Y-105338523D01*
X139136381Y-105433761D01*
X139136381Y-105529000D01*
X139088762Y-105624238D01*
X139041143Y-105671857D01*
X138945905Y-105719476D01*
X138755429Y-105767095D01*
X138517333Y-105767095D01*
X138326857Y-105719476D01*
X138231619Y-105671857D01*
X138184000Y-105624238D01*
X138136381Y-105529000D01*
X138136381Y-104576619D02*
X138136381Y-104481380D01*
X138184000Y-104386142D01*
X138231619Y-104338523D01*
X138326857Y-104290904D01*
X138517333Y-104243285D01*
X138755429Y-104243285D01*
X138945905Y-104290904D01*
X139041143Y-104338523D01*
X139088762Y-104386142D01*
X139136381Y-104481380D01*
X139136381Y-104576619D01*
X139088762Y-104671857D01*
X139041143Y-104719476D01*
X138945905Y-104767095D01*
X138755429Y-104814714D01*
X138517333Y-104814714D01*
X138326857Y-104767095D01*
X138231619Y-104719476D01*
X138184000Y-104671857D01*
X138136381Y-104576619D01*
X138469714Y-103814714D02*
X139136381Y-103814714D01*
X138564952Y-103814714D02*
X138517333Y-103767095D01*
X138469714Y-103671857D01*
X138469714Y-103528999D01*
X138517333Y-103433761D01*
X138612571Y-103386142D01*
X139136381Y-103386142D01*
X139041143Y-102274666D02*
X139088762Y-102322285D01*
X139136381Y-102465142D01*
X139136381Y-102560380D01*
X139088762Y-102703238D01*
X138993524Y-102798476D01*
X138898286Y-102846095D01*
X138707810Y-102893714D01*
X138564952Y-102893714D01*
X138374476Y-102846095D01*
X138279238Y-102798476D01*
X138184000Y-102703238D01*
X138136381Y-102560380D01*
X138136381Y-102465142D01*
X138184000Y-102322285D01*
X138231619Y-102274666D01*
X138231619Y-101893714D02*
X138184000Y-101846095D01*
X138136381Y-101750857D01*
X138136381Y-101512761D01*
X138184000Y-101417523D01*
X138231619Y-101369904D01*
X138326857Y-101322285D01*
X138422095Y-101322285D01*
X138564952Y-101369904D01*
X139136381Y-101941333D01*
X139136381Y-101322285D01*
X149661619Y-107640286D02*
X149614000Y-107592667D01*
X149566381Y-107497429D01*
X149566381Y-107259333D01*
X149614000Y-107164095D01*
X149661619Y-107116476D01*
X149756857Y-107068857D01*
X149852095Y-107068857D01*
X149994952Y-107116476D01*
X150566381Y-107687905D01*
X150566381Y-107068857D01*
X149566381Y-106735524D02*
X149566381Y-106068857D01*
X150566381Y-106497429D01*
X149899714Y-105687905D02*
X150899714Y-105687905D01*
X149947333Y-105687905D02*
X149899714Y-105592667D01*
X149899714Y-105402190D01*
X149947333Y-105306952D01*
X149994952Y-105259333D01*
X150090190Y-105211714D01*
X150375905Y-105211714D01*
X150471143Y-105259333D01*
X150518762Y-105306952D01*
X150566381Y-105402190D01*
X150566381Y-105592667D01*
X150518762Y-105687905D01*
X150471143Y-103163666D02*
X150518762Y-103211285D01*
X150566381Y-103354142D01*
X150566381Y-103449380D01*
X150518762Y-103592238D01*
X150423524Y-103687476D01*
X150328286Y-103735095D01*
X150137810Y-103782714D01*
X149994952Y-103782714D01*
X149804476Y-103735095D01*
X149709238Y-103687476D01*
X149614000Y-103592238D01*
X149566381Y-103449380D01*
X149566381Y-103354142D01*
X149614000Y-103211285D01*
X149661619Y-103163666D01*
X149566381Y-102830333D02*
X149566381Y-102211285D01*
X149947333Y-102544619D01*
X149947333Y-102401761D01*
X149994952Y-102306523D01*
X150042571Y-102258904D01*
X150137810Y-102211285D01*
X150375905Y-102211285D01*
X150471143Y-102258904D01*
X150518762Y-102306523D01*
X150566381Y-102401761D01*
X150566381Y-102687476D01*
X150518762Y-102782714D01*
X150471143Y-102830333D01*
X134056381Y-111609047D02*
X134056381Y-112180476D01*
X134056381Y-111894762D02*
X133056381Y-111894762D01*
X133199238Y-111990000D01*
X133294476Y-112085238D01*
X133342095Y-112180476D01*
X133056381Y-110990000D02*
X133056381Y-110894761D01*
X133104000Y-110799523D01*
X133151619Y-110751904D01*
X133246857Y-110704285D01*
X133437333Y-110656666D01*
X133675429Y-110656666D01*
X133865905Y-110704285D01*
X133961143Y-110751904D01*
X134008762Y-110799523D01*
X134056381Y-110894761D01*
X134056381Y-110990000D01*
X134008762Y-111085238D01*
X133961143Y-111132857D01*
X133865905Y-111180476D01*
X133675429Y-111228095D01*
X133437333Y-111228095D01*
X133246857Y-111180476D01*
X133151619Y-111132857D01*
X133104000Y-111085238D01*
X133056381Y-110990000D01*
X133056381Y-110037619D02*
X133056381Y-109942380D01*
X133104000Y-109847142D01*
X133151619Y-109799523D01*
X133246857Y-109751904D01*
X133437333Y-109704285D01*
X133675429Y-109704285D01*
X133865905Y-109751904D01*
X133961143Y-109799523D01*
X134008762Y-109847142D01*
X134056381Y-109942380D01*
X134056381Y-110037619D01*
X134008762Y-110132857D01*
X133961143Y-110180476D01*
X133865905Y-110228095D01*
X133675429Y-110275714D01*
X133437333Y-110275714D01*
X133246857Y-110228095D01*
X133151619Y-110180476D01*
X133104000Y-110132857D01*
X133056381Y-110037619D01*
X133389714Y-109275714D02*
X134056381Y-109275714D01*
X133484952Y-109275714D02*
X133437333Y-109228095D01*
X133389714Y-109132857D01*
X133389714Y-108989999D01*
X133437333Y-108894761D01*
X133532571Y-108847142D01*
X134056381Y-108847142D01*
X133961143Y-107227666D02*
X134008762Y-107275285D01*
X134056381Y-107418142D01*
X134056381Y-107513380D01*
X134008762Y-107656238D01*
X133913524Y-107751476D01*
X133818286Y-107799095D01*
X133627810Y-107846714D01*
X133484952Y-107846714D01*
X133294476Y-107799095D01*
X133199238Y-107751476D01*
X133104000Y-107656238D01*
X133056381Y-107513380D01*
X133056381Y-107418142D01*
X133104000Y-107275285D01*
X133151619Y-107227666D01*
X133389714Y-106370523D02*
X134056381Y-106370523D01*
X133008762Y-106608619D02*
X133723048Y-106846714D01*
X133723048Y-106227666D01*
X144724381Y-89003047D02*
X144724381Y-89574476D01*
X144724381Y-89288762D02*
X143724381Y-89288762D01*
X143867238Y-89384000D01*
X143962476Y-89479238D01*
X144010095Y-89574476D01*
X143724381Y-88384000D02*
X143724381Y-88288761D01*
X143772000Y-88193523D01*
X143819619Y-88145904D01*
X143914857Y-88098285D01*
X144105333Y-88050666D01*
X144343429Y-88050666D01*
X144533905Y-88098285D01*
X144629143Y-88145904D01*
X144676762Y-88193523D01*
X144724381Y-88288761D01*
X144724381Y-88384000D01*
X144676762Y-88479238D01*
X144629143Y-88526857D01*
X144533905Y-88574476D01*
X144343429Y-88622095D01*
X144105333Y-88622095D01*
X143914857Y-88574476D01*
X143819619Y-88526857D01*
X143772000Y-88479238D01*
X143724381Y-88384000D01*
X143724381Y-87431619D02*
X143724381Y-87336380D01*
X143772000Y-87241142D01*
X143819619Y-87193523D01*
X143914857Y-87145904D01*
X144105333Y-87098285D01*
X144343429Y-87098285D01*
X144533905Y-87145904D01*
X144629143Y-87193523D01*
X144676762Y-87241142D01*
X144724381Y-87336380D01*
X144724381Y-87431619D01*
X144676762Y-87526857D01*
X144629143Y-87574476D01*
X144533905Y-87622095D01*
X144343429Y-87669714D01*
X144105333Y-87669714D01*
X143914857Y-87622095D01*
X143819619Y-87574476D01*
X143772000Y-87526857D01*
X143724381Y-87431619D01*
X144057714Y-86669714D02*
X144724381Y-86669714D01*
X144152952Y-86669714D02*
X144105333Y-86622095D01*
X144057714Y-86526857D01*
X144057714Y-86383999D01*
X144105333Y-86288761D01*
X144200571Y-86241142D01*
X144724381Y-86241142D01*
X144629143Y-91352666D02*
X144676762Y-91400285D01*
X144724381Y-91543142D01*
X144724381Y-91638380D01*
X144676762Y-91781238D01*
X144581524Y-91876476D01*
X144486286Y-91924095D01*
X144295810Y-91971714D01*
X144152952Y-91971714D01*
X143962476Y-91924095D01*
X143867238Y-91876476D01*
X143772000Y-91781238D01*
X143724381Y-91638380D01*
X143724381Y-91543142D01*
X143772000Y-91400285D01*
X143819619Y-91352666D01*
X143724381Y-90447904D02*
X143724381Y-90924095D01*
X144200571Y-90971714D01*
X144152952Y-90924095D01*
X144105333Y-90828857D01*
X144105333Y-90590761D01*
X144152952Y-90495523D01*
X144200571Y-90447904D01*
X144295810Y-90400285D01*
X144533905Y-90400285D01*
X144629143Y-90447904D01*
X144676762Y-90495523D01*
X144724381Y-90590761D01*
X144724381Y-90828857D01*
X144676762Y-90924095D01*
X144629143Y-90971714D01*
X156511667Y-92162381D02*
X156511667Y-92876667D01*
X156464047Y-93019524D01*
X156368809Y-93114762D01*
X156225952Y-93162381D01*
X156130714Y-93162381D01*
X157511667Y-93162381D02*
X156940238Y-93162381D01*
X157225952Y-93162381D02*
X157225952Y-92162381D01*
X157130714Y-92305238D01*
X157035476Y-92400476D01*
X156940238Y-92448095D01*
X152757429Y-108402381D02*
X152424095Y-107926190D01*
X152186000Y-108402381D02*
X152186000Y-107402381D01*
X152566953Y-107402381D01*
X152662191Y-107450000D01*
X152709810Y-107497619D01*
X152757429Y-107592857D01*
X152757429Y-107735714D01*
X152709810Y-107830952D01*
X152662191Y-107878571D01*
X152566953Y-107926190D01*
X152186000Y-107926190D01*
X153519334Y-107878571D02*
X153186000Y-107878571D01*
X153186000Y-108402381D02*
X153186000Y-107402381D01*
X153662191Y-107402381D01*
X153805048Y-108497619D02*
X154566953Y-108497619D01*
X154995524Y-107402381D02*
X155186001Y-107402381D01*
X155281239Y-107450000D01*
X155376477Y-107545238D01*
X155424096Y-107735714D01*
X155424096Y-108069048D01*
X155376477Y-108259524D01*
X155281239Y-108354762D01*
X155186001Y-108402381D01*
X154995524Y-108402381D01*
X154900286Y-108354762D01*
X154805048Y-108259524D01*
X154757429Y-108069048D01*
X154757429Y-107735714D01*
X154805048Y-107545238D01*
X154900286Y-107450000D01*
X154995524Y-107402381D01*
X155852667Y-107402381D02*
X155852667Y-108211905D01*
X155900286Y-108307143D01*
X155947905Y-108354762D01*
X156043143Y-108402381D01*
X156233620Y-108402381D01*
X156328858Y-108354762D01*
X156376477Y-108307143D01*
X156424096Y-108211905D01*
X156424096Y-107402381D01*
X156757429Y-107402381D02*
X157328858Y-107402381D01*
X157043143Y-108402381D02*
X157043143Y-107402381D01*
X146137381Y-89995333D02*
X146851667Y-89995333D01*
X146994524Y-90042953D01*
X147089762Y-90138191D01*
X147137381Y-90281048D01*
X147137381Y-90376286D01*
X146232619Y-89566762D02*
X146185000Y-89519143D01*
X146137381Y-89423905D01*
X146137381Y-89185809D01*
X146185000Y-89090571D01*
X146232619Y-89042952D01*
X146327857Y-88995333D01*
X146423095Y-88995333D01*
X146565952Y-89042952D01*
X147137381Y-89614381D01*
X147137381Y-88995333D01*
X152852381Y-91503333D02*
X151852381Y-91503333D01*
X151852381Y-91122380D01*
X151900000Y-91027142D01*
X151947619Y-90979523D01*
X152042857Y-90931904D01*
X152185714Y-90931904D01*
X152280952Y-90979523D01*
X152328571Y-91027142D01*
X152376190Y-91122380D01*
X152376190Y-91503333D01*
X151852381Y-90598571D02*
X152852381Y-90360476D01*
X152138095Y-90169999D01*
X152852381Y-89979523D01*
X151852381Y-89741428D01*
X152852381Y-88789047D02*
X152376190Y-89122381D01*
X152852381Y-89360476D02*
X151852381Y-89360476D01*
X151852381Y-88979523D01*
X151900000Y-88884285D01*
X151947619Y-88836666D01*
X152042857Y-88789047D01*
X152185714Y-88789047D01*
X152280952Y-88836666D01*
X152328571Y-88884285D01*
X152376190Y-88979523D01*
X152376190Y-89360476D01*
X143922762Y-97067619D02*
X143827524Y-97020000D01*
X143732286Y-96924762D01*
X143589429Y-96781905D01*
X143494190Y-96734286D01*
X143398952Y-96734286D01*
X143446571Y-96972381D02*
X143351333Y-96924762D01*
X143256095Y-96829524D01*
X143208476Y-96639048D01*
X143208476Y-96305714D01*
X143256095Y-96115238D01*
X143351333Y-96020000D01*
X143446571Y-95972381D01*
X143637048Y-95972381D01*
X143732286Y-96020000D01*
X143827524Y-96115238D01*
X143875143Y-96305714D01*
X143875143Y-96639048D01*
X143827524Y-96829524D01*
X143732286Y-96924762D01*
X143637048Y-96972381D01*
X143446571Y-96972381D01*
X144827524Y-96972381D02*
X144256095Y-96972381D01*
X144541809Y-96972381D02*
X144541809Y-95972381D01*
X144446571Y-96115238D01*
X144351333Y-96210476D01*
X144256095Y-96258095D01*
X135159762Y-98083619D02*
X135064524Y-98036000D01*
X134969286Y-97940762D01*
X134826429Y-97797905D01*
X134731190Y-97750286D01*
X134635952Y-97750286D01*
X134683571Y-97988381D02*
X134588333Y-97940762D01*
X134493095Y-97845524D01*
X134445476Y-97655048D01*
X134445476Y-97321714D01*
X134493095Y-97131238D01*
X134588333Y-97036000D01*
X134683571Y-96988381D01*
X134874048Y-96988381D01*
X134969286Y-97036000D01*
X135064524Y-97131238D01*
X135112143Y-97321714D01*
X135112143Y-97655048D01*
X135064524Y-97845524D01*
X134969286Y-97940762D01*
X134874048Y-97988381D01*
X134683571Y-97988381D01*
X135445476Y-96988381D02*
X136064524Y-96988381D01*
X135731190Y-97369333D01*
X135874048Y-97369333D01*
X135969286Y-97416952D01*
X136016905Y-97464571D01*
X136064524Y-97559810D01*
X136064524Y-97797905D01*
X136016905Y-97893143D01*
X135969286Y-97940762D01*
X135874048Y-97988381D01*
X135588333Y-97988381D01*
X135493095Y-97940762D01*
X135445476Y-97893143D01*
X133135714Y-93114666D02*
X133802381Y-93114666D01*
X132754762Y-93352762D02*
X133469048Y-93590857D01*
X133469048Y-92971809D01*
X132802381Y-92686095D02*
X132802381Y-92019428D01*
X133802381Y-92448000D01*
X132802381Y-91448000D02*
X132802381Y-91352761D01*
X132850000Y-91257523D01*
X132897619Y-91209904D01*
X132992857Y-91162285D01*
X133183333Y-91114666D01*
X133421429Y-91114666D01*
X133611905Y-91162285D01*
X133707143Y-91209904D01*
X133754762Y-91257523D01*
X133802381Y-91352761D01*
X133802381Y-91448000D01*
X133754762Y-91543238D01*
X133707143Y-91590857D01*
X133611905Y-91638476D01*
X133421429Y-91686095D01*
X133183333Y-91686095D01*
X132992857Y-91638476D01*
X132897619Y-91590857D01*
X132850000Y-91543238D01*
X132802381Y-91448000D01*
X133802381Y-90686095D02*
X132802381Y-90686095D01*
X133421429Y-90590857D02*
X133802381Y-90305142D01*
X133135714Y-90305142D02*
X133516667Y-90686095D01*
X132278381Y-93130666D02*
X131802190Y-93464000D01*
X132278381Y-93702095D02*
X131278381Y-93702095D01*
X131278381Y-93321142D01*
X131326000Y-93225904D01*
X131373619Y-93178285D01*
X131468857Y-93130666D01*
X131611714Y-93130666D01*
X131706952Y-93178285D01*
X131754571Y-93225904D01*
X131802190Y-93321142D01*
X131802190Y-93702095D01*
X132278381Y-92178285D02*
X132278381Y-92749714D01*
X132278381Y-92464000D02*
X131278381Y-92464000D01*
X131421238Y-92559238D01*
X131516476Y-92654476D01*
X131564095Y-92749714D01*
X137453714Y-90733476D02*
X138120381Y-90733476D01*
X137072762Y-90971572D02*
X137787048Y-91209667D01*
X137787048Y-90590619D01*
X138120381Y-90209667D02*
X137120381Y-90209667D01*
X137739429Y-90114429D02*
X138120381Y-89828714D01*
X137453714Y-89828714D02*
X137834667Y-90209667D01*
X137120381Y-89495381D02*
X137120381Y-88828714D01*
X138120381Y-89257286D01*
X138120381Y-92749666D02*
X137644190Y-93083000D01*
X138120381Y-93321095D02*
X137120381Y-93321095D01*
X137120381Y-92940142D01*
X137168000Y-92844904D01*
X137215619Y-92797285D01*
X137310857Y-92749666D01*
X137453714Y-92749666D01*
X137548952Y-92797285D01*
X137596571Y-92844904D01*
X137644190Y-92940142D01*
X137644190Y-93321095D01*
X137215619Y-92368714D02*
X137168000Y-92321095D01*
X137120381Y-92225857D01*
X137120381Y-91987761D01*
X137168000Y-91892523D01*
X137215619Y-91844904D01*
X137310857Y-91797285D01*
X137406095Y-91797285D01*
X137548952Y-91844904D01*
X138120381Y-92416333D01*
X138120381Y-91797285D01*
X141279619Y-91209667D02*
X141232000Y-91162048D01*
X141184381Y-91066810D01*
X141184381Y-90828714D01*
X141232000Y-90733476D01*
X141279619Y-90685857D01*
X141374857Y-90638238D01*
X141470095Y-90638238D01*
X141612952Y-90685857D01*
X142184381Y-91257286D01*
X142184381Y-90638238D01*
X142184381Y-90209667D02*
X141184381Y-90209667D01*
X141803429Y-90114429D02*
X142184381Y-89828714D01*
X141517714Y-89828714D02*
X141898667Y-90209667D01*
X141279619Y-89447762D02*
X141232000Y-89400143D01*
X141184381Y-89304905D01*
X141184381Y-89066809D01*
X141232000Y-88971571D01*
X141279619Y-88923952D01*
X141374857Y-88876333D01*
X141470095Y-88876333D01*
X141612952Y-88923952D01*
X142184381Y-89495381D01*
X142184381Y-88876333D01*
X142184381Y-92749666D02*
X141708190Y-93083000D01*
X142184381Y-93321095D02*
X141184381Y-93321095D01*
X141184381Y-92940142D01*
X141232000Y-92844904D01*
X141279619Y-92797285D01*
X141374857Y-92749666D01*
X141517714Y-92749666D01*
X141612952Y-92797285D01*
X141660571Y-92844904D01*
X141708190Y-92940142D01*
X141708190Y-93321095D01*
X141184381Y-92416333D02*
X141184381Y-91797285D01*
X141565333Y-92130619D01*
X141565333Y-91987761D01*
X141612952Y-91892523D01*
X141660571Y-91844904D01*
X141755810Y-91797285D01*
X141993905Y-91797285D01*
X142089143Y-91844904D01*
X142136762Y-91892523D01*
X142184381Y-91987761D01*
X142184381Y-92273476D01*
X142136762Y-92368714D01*
X142089143Y-92416333D01*
X143478334Y-105989381D02*
X142906905Y-105989381D01*
X143192619Y-105989381D02*
X143192619Y-104989381D01*
X143097381Y-105132238D01*
X143002143Y-105227476D01*
X142906905Y-105275095D01*
X144097381Y-104989381D02*
X144192620Y-104989381D01*
X144287858Y-105037000D01*
X144335477Y-105084619D01*
X144383096Y-105179857D01*
X144430715Y-105370333D01*
X144430715Y-105608429D01*
X144383096Y-105798905D01*
X144335477Y-105894143D01*
X144287858Y-105941762D01*
X144192620Y-105989381D01*
X144097381Y-105989381D01*
X144002143Y-105941762D01*
X143954524Y-105894143D01*
X143906905Y-105798905D01*
X143859286Y-105608429D01*
X143859286Y-105370333D01*
X143906905Y-105179857D01*
X143954524Y-105084619D01*
X144002143Y-105037000D01*
X144097381Y-104989381D01*
X145049762Y-104989381D02*
X145145001Y-104989381D01*
X145240239Y-105037000D01*
X145287858Y-105084619D01*
X145335477Y-105179857D01*
X145383096Y-105370333D01*
X145383096Y-105608429D01*
X145335477Y-105798905D01*
X145287858Y-105894143D01*
X145240239Y-105941762D01*
X145145001Y-105989381D01*
X145049762Y-105989381D01*
X144954524Y-105941762D01*
X144906905Y-105894143D01*
X144859286Y-105798905D01*
X144811667Y-105608429D01*
X144811667Y-105370333D01*
X144859286Y-105179857D01*
X144906905Y-105084619D01*
X144954524Y-105037000D01*
X145049762Y-104989381D01*
X143597334Y-103322381D02*
X143264000Y-102846190D01*
X143025905Y-103322381D02*
X143025905Y-102322381D01*
X143406858Y-102322381D01*
X143502096Y-102370000D01*
X143549715Y-102417619D01*
X143597334Y-102512857D01*
X143597334Y-102655714D01*
X143549715Y-102750952D01*
X143502096Y-102798571D01*
X143406858Y-102846190D01*
X143025905Y-102846190D01*
X144454477Y-102655714D02*
X144454477Y-103322381D01*
X144216381Y-102274762D02*
X143978286Y-102989048D01*
X144597334Y-102989048D01*
X143478334Y-107259381D02*
X142906905Y-107259381D01*
X143192619Y-107259381D02*
X143192619Y-106259381D01*
X143097381Y-106402238D01*
X143002143Y-106497476D01*
X142906905Y-106545095D01*
X144097381Y-106259381D02*
X144192620Y-106259381D01*
X144287858Y-106307000D01*
X144335477Y-106354619D01*
X144383096Y-106449857D01*
X144430715Y-106640333D01*
X144430715Y-106878429D01*
X144383096Y-107068905D01*
X144335477Y-107164143D01*
X144287858Y-107211762D01*
X144192620Y-107259381D01*
X144097381Y-107259381D01*
X144002143Y-107211762D01*
X143954524Y-107164143D01*
X143906905Y-107068905D01*
X143859286Y-106878429D01*
X143859286Y-106640333D01*
X143906905Y-106449857D01*
X143954524Y-106354619D01*
X144002143Y-106307000D01*
X144097381Y-106259381D01*
X145049762Y-106259381D02*
X145145001Y-106259381D01*
X145240239Y-106307000D01*
X145287858Y-106354619D01*
X145335477Y-106449857D01*
X145383096Y-106640333D01*
X145383096Y-106878429D01*
X145335477Y-107068905D01*
X145287858Y-107164143D01*
X145240239Y-107211762D01*
X145145001Y-107259381D01*
X145049762Y-107259381D01*
X144954524Y-107211762D01*
X144906905Y-107164143D01*
X144859286Y-107068905D01*
X144811667Y-106878429D01*
X144811667Y-106640333D01*
X144859286Y-106449857D01*
X144906905Y-106354619D01*
X144954524Y-106307000D01*
X145049762Y-106259381D01*
X143597334Y-104719381D02*
X143264000Y-104243190D01*
X143025905Y-104719381D02*
X143025905Y-103719381D01*
X143406858Y-103719381D01*
X143502096Y-103767000D01*
X143549715Y-103814619D01*
X143597334Y-103909857D01*
X143597334Y-104052714D01*
X143549715Y-104147952D01*
X143502096Y-104195571D01*
X143406858Y-104243190D01*
X143025905Y-104243190D01*
X144502096Y-103719381D02*
X144025905Y-103719381D01*
X143978286Y-104195571D01*
X144025905Y-104147952D01*
X144121143Y-104100333D01*
X144359239Y-104100333D01*
X144454477Y-104147952D01*
X144502096Y-104195571D01*
X144549715Y-104290810D01*
X144549715Y-104528905D01*
X144502096Y-104624143D01*
X144454477Y-104671762D01*
X144359239Y-104719381D01*
X144121143Y-104719381D01*
X144025905Y-104671762D01*
X143978286Y-104624143D01*
X135834381Y-109212047D02*
X135834381Y-109783476D01*
X135834381Y-109497762D02*
X134834381Y-109497762D01*
X134977238Y-109593000D01*
X135072476Y-109688238D01*
X135120095Y-109783476D01*
X135834381Y-108783476D02*
X134834381Y-108783476D01*
X135453429Y-108688238D02*
X135834381Y-108402523D01*
X135167714Y-108402523D02*
X135548667Y-108783476D01*
X135961381Y-107100666D02*
X135485190Y-107434000D01*
X135961381Y-107672095D02*
X134961381Y-107672095D01*
X134961381Y-107291142D01*
X135009000Y-107195904D01*
X135056619Y-107148285D01*
X135151857Y-107100666D01*
X135294714Y-107100666D01*
X135389952Y-107148285D01*
X135437571Y-107195904D01*
X135485190Y-107291142D01*
X135485190Y-107672095D01*
X134961381Y-106243523D02*
X134961381Y-106434000D01*
X135009000Y-106529238D01*
X135056619Y-106576857D01*
X135199476Y-106672095D01*
X135389952Y-106719714D01*
X135770905Y-106719714D01*
X135866143Y-106672095D01*
X135913762Y-106624476D01*
X135961381Y-106529238D01*
X135961381Y-106338761D01*
X135913762Y-106243523D01*
X135866143Y-106195904D01*
X135770905Y-106148285D01*
X135532810Y-106148285D01*
X135437571Y-106195904D01*
X135389952Y-106243523D01*
X135342333Y-106338761D01*
X135342333Y-106529238D01*
X135389952Y-106624476D01*
X135437571Y-106672095D01*
X135532810Y-106719714D01*
X141930381Y-110069238D02*
X141930381Y-110640667D01*
X141930381Y-110354953D02*
X140930381Y-110354953D01*
X141073238Y-110450191D01*
X141168476Y-110545429D01*
X141216095Y-110640667D01*
X140930381Y-109450191D02*
X140930381Y-109354952D01*
X140978000Y-109259714D01*
X141025619Y-109212095D01*
X141120857Y-109164476D01*
X141311333Y-109116857D01*
X141549429Y-109116857D01*
X141739905Y-109164476D01*
X141835143Y-109212095D01*
X141882762Y-109259714D01*
X141930381Y-109354952D01*
X141930381Y-109450191D01*
X141882762Y-109545429D01*
X141835143Y-109593048D01*
X141739905Y-109640667D01*
X141549429Y-109688286D01*
X141311333Y-109688286D01*
X141120857Y-109640667D01*
X141025619Y-109593048D01*
X140978000Y-109545429D01*
X140930381Y-109450191D01*
X141930381Y-108688286D02*
X140930381Y-108688286D01*
X141549429Y-108593048D02*
X141930381Y-108307333D01*
X141263714Y-108307333D02*
X141644667Y-108688286D01*
X141930381Y-106973666D02*
X141454190Y-107307000D01*
X141930381Y-107545095D02*
X140930381Y-107545095D01*
X140930381Y-107164142D01*
X140978000Y-107068904D01*
X141025619Y-107021285D01*
X141120857Y-106973666D01*
X141263714Y-106973666D01*
X141358952Y-107021285D01*
X141406571Y-107068904D01*
X141454190Y-107164142D01*
X141454190Y-107545095D01*
X140930381Y-106640333D02*
X140930381Y-105973666D01*
X141930381Y-106402238D01*
X146740619Y-109696095D02*
X146693000Y-109648476D01*
X146645381Y-109553238D01*
X146645381Y-109315142D01*
X146693000Y-109219904D01*
X146740619Y-109172285D01*
X146835857Y-109124666D01*
X146931095Y-109124666D01*
X147073952Y-109172285D01*
X147645381Y-109743714D01*
X147645381Y-109124666D01*
X146740619Y-108743714D02*
X146693000Y-108696095D01*
X146645381Y-108600857D01*
X146645381Y-108362761D01*
X146693000Y-108267523D01*
X146740619Y-108219904D01*
X146835857Y-108172285D01*
X146931095Y-108172285D01*
X147073952Y-108219904D01*
X147645381Y-108791333D01*
X147645381Y-108172285D01*
X146645381Y-107553238D02*
X146645381Y-107457999D01*
X146693000Y-107362761D01*
X146740619Y-107315142D01*
X146835857Y-107267523D01*
X147026333Y-107219904D01*
X147264429Y-107219904D01*
X147454905Y-107267523D01*
X147550143Y-107315142D01*
X147597762Y-107362761D01*
X147645381Y-107457999D01*
X147645381Y-107553238D01*
X147597762Y-107648476D01*
X147550143Y-107696095D01*
X147454905Y-107743714D01*
X147264429Y-107791333D01*
X147026333Y-107791333D01*
X146835857Y-107743714D01*
X146740619Y-107696095D01*
X146693000Y-107648476D01*
X146645381Y-107553238D01*
X147645381Y-105703666D02*
X147169190Y-106037000D01*
X147645381Y-106275095D02*
X146645381Y-106275095D01*
X146645381Y-105894142D01*
X146693000Y-105798904D01*
X146740619Y-105751285D01*
X146835857Y-105703666D01*
X146978714Y-105703666D01*
X147073952Y-105751285D01*
X147121571Y-105798904D01*
X147169190Y-105894142D01*
X147169190Y-106275095D01*
X147073952Y-105132238D02*
X147026333Y-105227476D01*
X146978714Y-105275095D01*
X146883476Y-105322714D01*
X146835857Y-105322714D01*
X146740619Y-105275095D01*
X146693000Y-105227476D01*
X146645381Y-105132238D01*
X146645381Y-104941761D01*
X146693000Y-104846523D01*
X146740619Y-104798904D01*
X146835857Y-104751285D01*
X146883476Y-104751285D01*
X146978714Y-104798904D01*
X147026333Y-104846523D01*
X147073952Y-104941761D01*
X147073952Y-105132238D01*
X147121571Y-105227476D01*
X147169190Y-105275095D01*
X147264429Y-105322714D01*
X147454905Y-105322714D01*
X147550143Y-105275095D01*
X147597762Y-105227476D01*
X147645381Y-105132238D01*
X147645381Y-104941761D01*
X147597762Y-104846523D01*
X147550143Y-104798904D01*
X147454905Y-104751285D01*
X147264429Y-104751285D01*
X147169190Y-104798904D01*
X147121571Y-104846523D01*
X147073952Y-104941761D01*
X131349762Y-97575619D02*
X131254524Y-97528000D01*
X131159286Y-97432762D01*
X131016429Y-97289905D01*
X130921190Y-97242286D01*
X130825952Y-97242286D01*
X130873571Y-97480381D02*
X130778333Y-97432762D01*
X130683095Y-97337524D01*
X130635476Y-97147048D01*
X130635476Y-96813714D01*
X130683095Y-96623238D01*
X130778333Y-96528000D01*
X130873571Y-96480381D01*
X131064048Y-96480381D01*
X131159286Y-96528000D01*
X131254524Y-96623238D01*
X131302143Y-96813714D01*
X131302143Y-97147048D01*
X131254524Y-97337524D01*
X131159286Y-97432762D01*
X131064048Y-97480381D01*
X130873571Y-97480381D01*
X131683095Y-96575619D02*
X131730714Y-96528000D01*
X131825952Y-96480381D01*
X132064048Y-96480381D01*
X132159286Y-96528000D01*
X132206905Y-96575619D01*
X132254524Y-96670857D01*
X132254524Y-96766095D01*
X132206905Y-96908952D01*
X131635476Y-97480381D01*
X132254524Y-97480381D01*
X130500381Y-109735476D02*
X129500381Y-109735476D01*
X130214667Y-109402142D01*
X129500381Y-109068809D01*
X130500381Y-109068809D01*
X130500381Y-108592619D02*
X129500381Y-108592619D01*
X130214667Y-108259285D01*
X129500381Y-107925952D01*
X130500381Y-107925952D01*
X129976571Y-107116428D02*
X130024190Y-106973571D01*
X130071810Y-106925952D01*
X130167048Y-106878333D01*
X130309905Y-106878333D01*
X130405143Y-106925952D01*
X130452762Y-106973571D01*
X130500381Y-107068809D01*
X130500381Y-107449762D01*
X129500381Y-107449762D01*
X129500381Y-107116428D01*
X129548000Y-107021190D01*
X129595619Y-106973571D01*
X129690857Y-106925952D01*
X129786095Y-106925952D01*
X129881333Y-106973571D01*
X129928952Y-107021190D01*
X129976571Y-107116428D01*
X129976571Y-107449762D01*
X129500381Y-106592619D02*
X129500381Y-106021190D01*
X130500381Y-106306905D02*
X129500381Y-106306905D01*
X129500381Y-105783095D02*
X129500381Y-105164047D01*
X129881333Y-105497381D01*
X129881333Y-105354523D01*
X129928952Y-105259285D01*
X129976571Y-105211666D01*
X130071810Y-105164047D01*
X130309905Y-105164047D01*
X130405143Y-105211666D01*
X130452762Y-105259285D01*
X130500381Y-105354523D01*
X130500381Y-105640238D01*
X130452762Y-105735476D01*
X130405143Y-105783095D01*
X130500381Y-104687857D02*
X130500381Y-104497381D01*
X130452762Y-104402142D01*
X130405143Y-104354523D01*
X130262286Y-104259285D01*
X130071810Y-104211666D01*
X129690857Y-104211666D01*
X129595619Y-104259285D01*
X129548000Y-104306904D01*
X129500381Y-104402142D01*
X129500381Y-104592619D01*
X129548000Y-104687857D01*
X129595619Y-104735476D01*
X129690857Y-104783095D01*
X129928952Y-104783095D01*
X130024190Y-104735476D01*
X130071810Y-104687857D01*
X130119429Y-104592619D01*
X130119429Y-104402142D01*
X130071810Y-104306904D01*
X130024190Y-104259285D01*
X129928952Y-104211666D01*
X129500381Y-103592619D02*
X129500381Y-103497380D01*
X129548000Y-103402142D01*
X129595619Y-103354523D01*
X129690857Y-103306904D01*
X129881333Y-103259285D01*
X130119429Y-103259285D01*
X130309905Y-103306904D01*
X130405143Y-103354523D01*
X130452762Y-103402142D01*
X130500381Y-103497380D01*
X130500381Y-103592619D01*
X130452762Y-103687857D01*
X130405143Y-103735476D01*
X130309905Y-103783095D01*
X130119429Y-103830714D01*
X129881333Y-103830714D01*
X129690857Y-103783095D01*
X129595619Y-103735476D01*
X129548000Y-103687857D01*
X129500381Y-103592619D01*
X129833714Y-102402142D02*
X130500381Y-102402142D01*
X129452762Y-102640238D02*
X130167048Y-102878333D01*
X130167048Y-102259285D01*
X134977143Y-90971666D02*
X135024762Y-91019285D01*
X135072381Y-91162142D01*
X135072381Y-91257380D01*
X135024762Y-91400238D01*
X134929524Y-91495476D01*
X134834286Y-91543095D01*
X134643810Y-91590714D01*
X134500952Y-91590714D01*
X134310476Y-91543095D01*
X134215238Y-91495476D01*
X134120000Y-91400238D01*
X134072381Y-91257380D01*
X134072381Y-91162142D01*
X134120000Y-91019285D01*
X134167619Y-90971666D01*
X134072381Y-90114523D02*
X134072381Y-90305000D01*
X134120000Y-90400238D01*
X134167619Y-90447857D01*
X134310476Y-90543095D01*
X134500952Y-90590714D01*
X134881905Y-90590714D01*
X134977143Y-90543095D01*
X135024762Y-90495476D01*
X135072381Y-90400238D01*
X135072381Y-90209761D01*
X135024762Y-90114523D01*
X134977143Y-90066904D01*
X134881905Y-90019285D01*
X134643810Y-90019285D01*
X134548571Y-90066904D01*
X134500952Y-90114523D01*
X134453333Y-90209761D01*
X134453333Y-90400238D01*
X134500952Y-90495476D01*
X134548571Y-90543095D01*
X134643810Y-90590714D01*
X136342381Y-91289047D02*
X136342381Y-91860476D01*
X136342381Y-91574762D02*
X135342381Y-91574762D01*
X135485238Y-91670000D01*
X135580476Y-91765238D01*
X135628095Y-91860476D01*
X135342381Y-90670000D02*
X135342381Y-90574761D01*
X135390000Y-90479523D01*
X135437619Y-90431904D01*
X135532857Y-90384285D01*
X135723333Y-90336666D01*
X135961429Y-90336666D01*
X136151905Y-90384285D01*
X136247143Y-90431904D01*
X136294762Y-90479523D01*
X136342381Y-90574761D01*
X136342381Y-90670000D01*
X136294762Y-90765238D01*
X136247143Y-90812857D01*
X136151905Y-90860476D01*
X135961429Y-90908095D01*
X135723333Y-90908095D01*
X135532857Y-90860476D01*
X135437619Y-90812857D01*
X135390000Y-90765238D01*
X135342381Y-90670000D01*
X135342381Y-89717619D02*
X135342381Y-89622380D01*
X135390000Y-89527142D01*
X135437619Y-89479523D01*
X135532857Y-89431904D01*
X135723333Y-89384285D01*
X135961429Y-89384285D01*
X136151905Y-89431904D01*
X136247143Y-89479523D01*
X136294762Y-89527142D01*
X136342381Y-89622380D01*
X136342381Y-89717619D01*
X136294762Y-89812857D01*
X136247143Y-89860476D01*
X136151905Y-89908095D01*
X135961429Y-89955714D01*
X135723333Y-89955714D01*
X135532857Y-89908095D01*
X135437619Y-89860476D01*
X135390000Y-89812857D01*
X135342381Y-89717619D01*
X135675714Y-88955714D02*
X136342381Y-88955714D01*
X135770952Y-88955714D02*
X135723333Y-88908095D01*
X135675714Y-88812857D01*
X135675714Y-88669999D01*
X135723333Y-88574761D01*
X135818571Y-88527142D01*
X136342381Y-88527142D01*
X139549143Y-91225666D02*
X139596762Y-91273285D01*
X139644381Y-91416142D01*
X139644381Y-91511380D01*
X139596762Y-91654238D01*
X139501524Y-91749476D01*
X139406286Y-91797095D01*
X139215810Y-91844714D01*
X139072952Y-91844714D01*
X138882476Y-91797095D01*
X138787238Y-91749476D01*
X138692000Y-91654238D01*
X138644381Y-91511380D01*
X138644381Y-91416142D01*
X138692000Y-91273285D01*
X138739619Y-91225666D01*
X138644381Y-90892333D02*
X138644381Y-90225666D01*
X139644381Y-90654238D01*
X140787381Y-91543047D02*
X140787381Y-92114476D01*
X140787381Y-91828762D02*
X139787381Y-91828762D01*
X139930238Y-91924000D01*
X140025476Y-92019238D01*
X140073095Y-92114476D01*
X139787381Y-90924000D02*
X139787381Y-90828761D01*
X139835000Y-90733523D01*
X139882619Y-90685904D01*
X139977857Y-90638285D01*
X140168333Y-90590666D01*
X140406429Y-90590666D01*
X140596905Y-90638285D01*
X140692143Y-90685904D01*
X140739762Y-90733523D01*
X140787381Y-90828761D01*
X140787381Y-90924000D01*
X140739762Y-91019238D01*
X140692143Y-91066857D01*
X140596905Y-91114476D01*
X140406429Y-91162095D01*
X140168333Y-91162095D01*
X139977857Y-91114476D01*
X139882619Y-91066857D01*
X139835000Y-91019238D01*
X139787381Y-90924000D01*
X139787381Y-89971619D02*
X139787381Y-89876380D01*
X139835000Y-89781142D01*
X139882619Y-89733523D01*
X139977857Y-89685904D01*
X140168333Y-89638285D01*
X140406429Y-89638285D01*
X140596905Y-89685904D01*
X140692143Y-89733523D01*
X140739762Y-89781142D01*
X140787381Y-89876380D01*
X140787381Y-89971619D01*
X140739762Y-90066857D01*
X140692143Y-90114476D01*
X140596905Y-90162095D01*
X140406429Y-90209714D01*
X140168333Y-90209714D01*
X139977857Y-90162095D01*
X139882619Y-90114476D01*
X139835000Y-90066857D01*
X139787381Y-89971619D01*
X140120714Y-89209714D02*
X140787381Y-89209714D01*
X140215952Y-89209714D02*
X140168333Y-89162095D01*
X140120714Y-89066857D01*
X140120714Y-88923999D01*
X140168333Y-88828761D01*
X140263571Y-88781142D01*
X140787381Y-88781142D01*
M02*
