G04 #@! TF.FileFunction,Paste,Top*
%FSLAX46Y46*%
G04 Gerber Fmt 4.6, Leading zero omitted, Abs format (unit mm)*
G04 Created by KiCad (PCBNEW 4.0.6) date Wed Jul 14 20:47:06 2021*
%MOMM*%
%LPD*%
G01*
G04 APERTURE LIST*
%ADD10C,0.020000*%
%ADD11C,0.150000*%
%ADD12R,1.000000X1.250000*%
%ADD13R,1.250000X1.000000*%
%ADD14R,4.445000X2.540000*%
%ADD15R,0.800000X0.900000*%
%ADD16R,0.900000X0.800000*%
%ADD17R,0.700000X1.300000*%
%ADD18R,1.300000X0.700000*%
G04 APERTURE END LIST*
D10*
D11*
X157988000Y-111633000D02*
X157988000Y-88519000D01*
X125857000Y-111633000D02*
X157988000Y-111633000D01*
X125857000Y-88519000D02*
X125857000Y-111633000D01*
X157988000Y-88519000D02*
X125857000Y-88519000D01*
D12*
X149114000Y-99187000D03*
X151114000Y-99187000D03*
X129143000Y-96647000D03*
X127143000Y-96647000D03*
X137684000Y-100076000D03*
X139684000Y-100076000D03*
X149114000Y-101092000D03*
X151114000Y-101092000D03*
D13*
X133604000Y-103267000D03*
X133604000Y-105267000D03*
X144272000Y-94980000D03*
X144272000Y-92980000D03*
D14*
X154876500Y-95631000D03*
X154876500Y-104521000D03*
X154876500Y-100076000D03*
D15*
X145354000Y-100060000D03*
X147254000Y-100060000D03*
X146304000Y-98060000D03*
D16*
X133620000Y-99126000D03*
X133620000Y-101026000D03*
X135620000Y-100076000D03*
D17*
X132903000Y-95123000D03*
X131003000Y-95123000D03*
D18*
X137668000Y-95189000D03*
X137668000Y-97089000D03*
X141478000Y-95189000D03*
X141478000Y-97089000D03*
D17*
X143444000Y-99060000D03*
X141544000Y-99060000D03*
X143444000Y-101092000D03*
X141544000Y-101092000D03*
D18*
X135509000Y-103317000D03*
X135509000Y-105217000D03*
X141478000Y-103190000D03*
X141478000Y-105090000D03*
X147193000Y-101920000D03*
X147193000Y-103820000D03*
D15*
X131379000Y-98568000D03*
X129479000Y-98568000D03*
X130429000Y-100568000D03*
D13*
X135255000Y-94980000D03*
X135255000Y-92980000D03*
X139573000Y-94980000D03*
X139573000Y-92980000D03*
M02*
