<?xml version="1.0" standalone="no"?>
 <!DOCTYPE svg PUBLIC "-//W3C//DTD SVG 1.1//EN" 
 "http://www.w3.org/Graphics/SVG/1.1/DTD/svg11.dtd"> 
<svg xmlns="http://www.w3.org/2000/svg" version="1.1" 
    width="29.7002cm" height="21.0007cm" viewBox="0 0 116930 82680 ">
<title>SVG Picture created as rf_noise_source-F.Fab.svg date 2021/07/14 20:47:21 </title>
  <desc>Picture generated by PCBNEW </desc>
<g style="fill:#000000; fill-opacity:1;stroke:#000000; stroke-opacity:1;
stroke-linecap:round; stroke-linejoin:round; "
 transform="translate(0 0) scale(1 1)">
</g>
<g style="fill:#000000; fill-opacity:0.0; 
stroke:#000000; stroke-width:-0.000393701; stroke-opacity:1; 
stroke-linecap:round; stroke-linejoin:round;">
</g>
<g style="fill:#000000; fill-opacity:0.0; 
stroke:#000000; stroke-width:59.0551; stroke-opacity:1; 
stroke-linecap:round; stroke-linejoin:round;">
<path d="M62200 43950
L62200 34850
" />
<path d="M49550 43950
L62200 43950
" />
<path d="M49550 34850
L49550 43950
" />
<path d="M62200 34850
L49550 34850
" />
</g>
<g style="fill:#000000; fill-opacity:0.0; 
stroke:#000000; stroke-width:39.3701; stroke-opacity:1; 
stroke-linecap:round; stroke-linejoin:round;">
<path d="M58706 39294
L58706 38805
" />
<path d="M59493 39294
L58706 39294
" />
<path d="M59493 38805
L59493 39294
" />
<path d="M58706 38805
L59493 38805
" />
<path d="M50843 37805
L50843 38294
" />
<path d="M50056 37805
L50843 37805
" />
<path d="M50056 38294
L50056 37805
" />
<path d="M50843 38294
L50056 38294
" />
<path d="M54206 39644
L54206 39155
" />
<path d="M54993 39644
L54206 39644
" />
<path d="M54993 39155
L54993 39644
" />
<path d="M54206 39155
L54993 39155
" />
<path d="M58706 40044
L58706 39555
" />
<path d="M59493 40044
L58706 40044
" />
<path d="M59493 39555
L59493 40044
" />
<path d="M58706 39555
L59493 39555
" />
<path d="M52355 40656
L52844 40656
" />
<path d="M52355 41443
L52355 40656
" />
<path d="M52844 41443
L52355 41443
" />
<path d="M52844 40656
L52844 41443
" />
<path d="M57044 37393
L56555 37393
" />
<path d="M57044 36606
L57044 37393
" />
<path d="M56555 36606
L57044 36606
" />
<path d="M56555 37393
L56555 36606
" />
<path d="M57600 37300
L59600 37300
" />
<path d="M59600 37300
L59600 36300
" />
<path d="M59600 36300
L57600 36300
" />
<path d="M57600 36300
L57600 37300
" />
<path d="M57974 37300
L58225 37300
" />
<path d="M58225 37300
L58225 37843
" />
<path d="M58225 37843
L57974 37843
" />
<path d="M57974 37843
L57974 37300
" />
<path d="M58974 36300
L59225 36300
" />
<path d="M59225 36300
L59225 35756
" />
<path d="M59225 35756
L58974 35756
" />
<path d="M58974 35756
L58974 36300
" />
<path d="M57225 39275
L58190 39275
" />
<path d="M57001 39059
L57001 38724
" />
<path d="M57225 39275
L57001 39059
" />
<path d="M57001 38724
L58198 38724
" />
<path d="M58198 39275
L58198 38724
" />
<path d="M52724 39025
L52724 39990
" />
<path d="M52940 38801
L53275 38801
" />
<path d="M52724 39025
L52940 38801
" />
<path d="M53275 38801
L53275 39998
" />
<path d="M52724 39998
L53275 39998
" />
<path d="M52343 37205
L52343 37694
" />
<path d="M51556 37205
L52343 37205
" />
<path d="M51556 37694
L51556 37205
" />
<path d="M52343 37694
L51556 37694
" />
<path d="M53955 37456
L54444 37456
" />
<path d="M53955 38243
L53955 37456
" />
<path d="M54444 38243
L53955 38243
" />
<path d="M54444 37456
L54444 38243
" />
<path d="M55455 37456
L55944 37456
" />
<path d="M55455 38243
L55455 37456
" />
<path d="M55944 38243
L55455 38243
" />
<path d="M55944 37456
L55944 38243
" />
<path d="M56493 38755
L56493 39244
" />
<path d="M55706 38755
L56493 38755
" />
<path d="M55706 39244
L55706 38755
" />
<path d="M56493 39244
L55706 39244
" />
<path d="M56493 39555
L56493 40044
" />
<path d="M55706 39555
L56493 39555
" />
<path d="M55706 40044
L55706 39555
" />
<path d="M56493 40044
L55706 40044
" />
<path d="M53105 40656
L53594 40656
" />
<path d="M53105 41443
L53105 40656
" />
<path d="M53594 41443
L53105 41443
" />
<path d="M53594 40656
L53594 41443
" />
<path d="M55455 40606
L55944 40606
" />
<path d="M55455 41393
L55455 40606
" />
<path d="M55944 41393
L55455 41393
" />
<path d="M55944 40606
L55944 41393
" />
<path d="M57705 40106
L58194 40106
" />
<path d="M57705 40893
L57705 40106
" />
<path d="M58194 40893
L57705 40893
" />
<path d="M58194 40106
L58194 40893
" />
<path d="M51724 38924
L50759 38924
" />
<path d="M51948 39140
L51948 39475
" />
<path d="M51724 38924
L51948 39140
" />
<path d="M51948 39475
L50751 39475
" />
<path d="M50751 38924
L50751 39475
" />
<path d="M53494 37393
L53005 37393
" />
<path d="M53494 36606
L53494 37393
" />
<path d="M53005 36606
L53494 36606
" />
<path d="M53005 37393
L53005 36606
" />
<path d="M55194 37393
L54705 37393
" />
<path d="M55194 36606
L55194 37393
" />
<path d="M54705 36606
L55194 36606
" />
<path d="M54705 37393
L54705 36606
" />
</g>
<g style="fill:#000000; fill-opacity:0.0; 
stroke:#000000; stroke-width:59.0551; stroke-opacity:1; 
stroke-linecap:round; stroke-linejoin:round;">
<path d="M58890 38315
L58909 38334
L58928 38390
L58928 38428
L58909 38484
L58871 38521
L58834 38540
L58759 38559
L58703 38559
L58628 38540
L58590 38521
L58553 38484
L58534 38428
L58534 38390
L58553 38334
L58571 38315
" />
<path d="M58703 38090
L58684 38128
L58665 38146
L58628 38165
L58609 38165
L58571 38146
L58553 38128
L58534 38090
L58534 38015
L58553 37978
L58571 37959
L58609 37940
L58628 37940
L58665 37959
L58684 37978
L58703 38015
L58703 38090
L58721 38128
L58740 38146
L58778 38165
L58853 38165
L58890 38146
L58909 38128
L58928 38090
L58928 38015
L58909 37978
L58890 37959
L58853 37940
L58778 37940
L58740 37959
L58721 37978
L58703 38015
" />
<path d="M59528 38340
L59528 38565
" />
<path d="M59528 38453
L59134 38453
L59190 38490
L59228 38528
L59246 38565
" />
<path d="M59134 38096
L59134 38059
L59153 38021
L59171 38003
L59209 37984
L59284 37965
L59378 37965
L59453 37984
L59490 38003
L59509 38021
L59528 38059
L59528 38096
L59509 38134
L59490 38153
L59453 38171
L59378 38190
L59284 38190
L59209 38171
L59171 38153
L59153 38134
L59134 38096
" />
<path d="M59134 37721
L59134 37684
L59153 37646
L59171 37628
L59209 37609
L59284 37590
L59378 37590
L59453 37609
L59490 37628
L59509 37646
L59528 37684
L59528 37721
L59509 37759
L59490 37778
L59453 37796
L59378 37815
L59284 37815
L59209 37796
L59171 37778
L59153 37759
L59134 37721
" />
<path d="M59265 37421
L59528 37421
" />
<path d="M59303 37421
L59284 37403
L59265 37365
L59265 37309
L59284 37271
L59321 37253
L59528 37253
" />
<path d="M51028 36740
L51028 36965
" />
<path d="M51028 36853
L50634 36853
L50690 36890
L50728 36928
L50746 36965
" />
<path d="M50634 36496
L50634 36459
L50653 36421
L50671 36403
L50709 36384
L50784 36365
L50878 36365
L50953 36384
L50990 36403
L51009 36421
L51028 36459
L51028 36496
L51009 36534
L50990 36553
L50953 36571
L50878 36590
L50784 36590
L50709 36571
L50671 36553
L50653 36534
L50634 36496
" />
<path d="M50634 36121
L50634 36084
L50653 36046
L50671 36028
L50709 36009
L50784 35990
L50878 35990
L50953 36009
L50990 36028
L51009 36046
L51028 36084
L51028 36121
L51009 36159
L50990 36178
L50953 36196
L50878 36215
L50784 36215
L50709 36196
L50671 36178
L50653 36159
L50634 36121
" />
<path d="M50765 35821
L51028 35821
" />
<path d="M50803 35821
L50784 35803
L50765 35765
L50765 35709
L50784 35671
L50821 35653
L51028 35653
" />
<path d="M50390 36665
L50409 36684
L50428 36740
L50428 36778
L50409 36834
L50371 36871
L50334 36890
L50259 36909
L50203 36909
L50128 36890
L50090 36871
L50053 36834
L50034 36778
L50034 36740
L50053 36684
L50071 36665
" />
<path d="M50428 36290
L50428 36515
" />
<path d="M50428 36403
L50034 36403
L50090 36440
L50128 36478
L50146 36515
" />
<path d="M54778 41790
L54778 42015
" />
<path d="M54778 41903
L54384 41903
L54440 41940
L54478 41978
L54496 42015
" />
<path d="M54384 41546
L54384 41509
L54403 41471
L54421 41453
L54459 41434
L54534 41415
L54628 41415
L54703 41434
L54740 41453
L54759 41471
L54778 41509
L54778 41546
L54759 41584
L54740 41603
L54703 41621
L54628 41640
L54534 41640
L54459 41621
L54421 41603
L54403 41584
L54384 41546
" />
<path d="M54384 41171
L54384 41134
L54403 41096
L54421 41078
L54459 41059
L54534 41040
L54628 41040
L54703 41059
L54740 41078
L54759 41096
L54778 41134
L54778 41171
L54759 41209
L54740 41228
L54703 41246
L54628 41265
L54534 41265
L54459 41246
L54421 41228
L54403 41209
L54384 41171
" />
<path d="M54515 40871
L54778 40871
" />
<path d="M54553 40871
L54534 40853
L54515 40815
L54515 40759
L54534 40721
L54571 40703
L54778 40703
" />
<path d="M54740 40265
L54759 40284
L54778 40340
L54778 40378
L54759 40434
L54721 40471
L54684 40490
L54609 40509
L54553 40509
L54478 40490
L54440 40471
L54403 40434
L54384 40378
L54384 40340
L54403 40284
L54421 40265
" />
<path d="M54421 40115
L54403 40096
L54384 40059
L54384 39965
L54403 39928
L54421 39909
L54459 39890
L54496 39890
L54553 39909
L54778 40134
L54778 39890
" />
<path d="M58921 42378
L58903 42359
L58884 42321
L58884 42228
L58903 42190
L58921 42171
L58959 42153
L58996 42153
L59053 42171
L59278 42396
L59278 42153
" />
<path d="M58884 42021
L58884 41759
L59278 41928
" />
<path d="M59015 41609
L59409 41609
" />
<path d="M59034 41609
L59015 41571
L59015 41496
L59034 41459
L59053 41440
L59090 41421
L59203 41421
L59240 41440
L59259 41459
L59278 41496
L59278 41571
L59259 41609
" />
<path d="M59240 40615
L59259 40634
L59278 40690
L59278 40728
L59259 40784
L59221 40821
L59184 40840
L59109 40859
L59053 40859
L58978 40840
L58940 40821
L58903 40784
L58884 40728
L58884 40690
L58903 40634
L58921 40615
" />
<path d="M58884 40484
L58884 40240
L59034 40371
L59034 40315
L59053 40278
L59071 40259
L59109 40240
L59203 40240
L59240 40259
L59259 40278
L59278 40315
L59278 40428
L59259 40465
L59240 40484
" />
<path d="M52778 43940
L52778 44165
" />
<path d="M52778 44053
L52384 44053
L52440 44090
L52478 44128
L52496 44165
" />
<path d="M52384 43696
L52384 43659
L52403 43621
L52421 43603
L52459 43584
L52534 43565
L52628 43565
L52703 43584
L52740 43603
L52759 43621
L52778 43659
L52778 43696
L52759 43734
L52740 43753
L52703 43771
L52628 43790
L52534 43790
L52459 43771
L52421 43753
L52403 43734
L52384 43696
" />
<path d="M52384 43321
L52384 43284
L52403 43246
L52421 43228
L52459 43209
L52534 43190
L52628 43190
L52703 43209
L52740 43228
L52759 43246
L52778 43284
L52778 43321
L52759 43359
L52740 43378
L52703 43396
L52628 43415
L52534 43415
L52459 43396
L52421 43378
L52403 43359
L52384 43321
" />
<path d="M52515 43021
L52778 43021
" />
<path d="M52553 43021
L52534 43003
L52515 42965
L52515 42909
L52534 42871
L52571 42853
L52778 42853
" />
<path d="M52740 42215
L52759 42234
L52778 42290
L52778 42328
L52759 42384
L52721 42421
L52684 42440
L52609 42459
L52553 42459
L52478 42440
L52440 42421
L52403 42384
L52384 42328
L52384 42290
L52403 42234
L52421 42215
" />
<path d="M52515 41878
L52778 41878
" />
<path d="M52365 41971
L52646 42065
L52646 41821
" />
<path d="M56978 35040
L56978 35265
" />
<path d="M56978 35153
L56584 35153
L56640 35190
L56678 35228
L56696 35265
" />
<path d="M56584 34796
L56584 34759
L56603 34721
L56621 34703
L56659 34684
L56734 34665
L56828 34665
L56903 34684
L56940 34703
L56959 34721
L56978 34759
L56978 34796
L56959 34834
L56940 34853
L56903 34871
L56828 34890
L56734 34890
L56659 34871
L56621 34853
L56603 34834
L56584 34796
" />
<path d="M56584 34421
L56584 34384
L56603 34346
L56621 34328
L56659 34309
L56734 34290
L56828 34290
L56903 34309
L56940 34328
L56959 34346
L56978 34384
L56978 34421
L56959 34459
L56940 34478
L56903 34496
L56828 34515
L56734 34515
L56659 34496
L56621 34478
L56603 34459
L56584 34421
" />
<path d="M56715 34121
L56978 34121
" />
<path d="M56753 34121
L56734 34103
L56715 34065
L56715 34009
L56734 33971
L56771 33953
L56978 33953
" />
<path d="M56940 35965
L56959 35984
L56978 36040
L56978 36078
L56959 36134
L56921 36171
L56884 36190
L56809 36209
L56753 36209
L56678 36190
L56640 36171
L56603 36134
L56584 36078
L56584 36040
L56603 35984
L56621 35965
" />
<path d="M56584 35609
L56584 35796
L56771 35815
L56753 35796
L56734 35759
L56734 35665
L56753 35628
L56771 35609
L56809 35590
L56903 35590
L56940 35609
L56959 35628
L56978 35665
L56978 35759
L56959 35796
L56940 35815
" />
<path d="M61618 36284
L61618 36565
L61600 36621
L61562 36659
L61506 36678
L61468 36678
" />
<path d="M62012 36678
L61787 36678
" />
<path d="M61899 36678
L61899 36284
L61862 36340
L61824 36378
L61787 36396
" />
<path d="M60140 42678
L60009 42490
" />
<path d="M59915 42678
L59915 42284
L60065 42284
L60103 42303
L60121 42321
L60140 42359
L60140 42415
L60121 42453
L60103 42471
L60065 42490
L59915 42490
" />
<path d="M60440 42471
L60309 42471
" />
<path d="M60309 42678
L60309 42284
L60496 42284
" />
<path d="M60553 42715
L60853 42715
" />
<path d="M61021 42284
L61096 42284
L61134 42303
L61171 42340
L61190 42415
L61190 42546
L61171 42621
L61134 42659
L61096 42678
L61021 42678
L60984 42659
L60946 42621
L60928 42546
L60928 42415
L60946 42340
L60984 42303
L61021 42284
" />
<path d="M61359 42284
L61359 42603
L61378 42640
L61396 42659
L61434 42678
L61509 42678
L61546 42659
L61565 42640
L61584 42603
L61584 42284
" />
<path d="M61715 42284
L61940 42284
" />
<path d="M61828 42678
L61828 42284
" />
<path d="M57534 35431
L57815 35431
L57871 35449
L57909 35487
L57928 35543
L57928 35581
" />
<path d="M57571 35262
L57553 35243
L57534 35206
L57534 35112
L57553 35075
L57571 35056
L57609 35037
L57646 35037
L57703 35056
L57928 35281
L57928 35037
" />
<path d="M60178 36024
L59784 36024
L59784 35874
L59803 35837
L59821 35818
L59859 35799
L59915 35799
L59953 35818
L59971 35837
L59990 35874
L59990 36024
" />
<path d="M59784 35668
L60178 35574
L59896 35499
L60178 35425
L59784 35331
" />
<path d="M60178 34956
L59990 35087
" />
<path d="M60178 35181
L59784 35181
L59784 35031
L59803 34993
L59821 34975
L59859 34956
L59915 34956
L59953 34975
L59971 34993
L59990 35031
L59990 35181
" />
<path d="M56662 38215
L56625 38196
L56587 38159
L56531 38103
L56493 38084
L56456 38084
" />
<path d="M56475 38178
L56437 38159
L56400 38121
L56381 38046
L56381 37915
L56400 37840
L56437 37803
L56475 37784
L56550 37784
L56587 37803
L56625 37840
L56643 37915
L56643 38046
L56625 38121
L56587 38159
L56550 38178
L56475 38178
" />
<path d="M57018 38178
L56793 38178
" />
<path d="M56906 38178
L56906 37784
L56868 37840
L56831 37878
L56793 37896
" />
<path d="M53212 38615
L53175 38596
L53137 38559
L53081 38503
L53043 38484
L53006 38484
" />
<path d="M53025 38578
L52987 38559
L52950 38521
L52931 38446
L52931 38315
L52950 38240
L52987 38203
L53025 38184
L53100 38184
L53137 38203
L53175 38240
L53193 38315
L53193 38446
L53175 38521
L53137 38559
L53100 38578
L53025 38578
" />
<path d="M53324 38184
L53568 38184
L53437 38334
L53493 38334
L53531 38353
L53549 38371
L53568 38409
L53568 38503
L53549 38540
L53531 38559
L53493 38578
L53381 38578
L53343 38559
L53324 38540
" />
<path d="M52415 36659
L52678 36659
" />
<path d="M52265 36753
L52546 36846
L52546 36603
" />
<path d="M52284 36490
L52284 36228
L52678 36396
" />
<path d="M52284 36003
L52284 35965
L52303 35928
L52321 35909
L52359 35890
L52434 35871
L52528 35871
L52603 35890
L52640 35909
L52659 35928
L52678 35965
L52678 36003
L52659 36040
L52640 36059
L52603 36078
L52528 36096
L52434 36096
L52359 36078
L52321 36059
L52303 36040
L52284 36003
" />
<path d="M52678 35703
L52284 35703
" />
<path d="M52528 35665
L52678 35553
" />
<path d="M52415 35553
L52565 35703
" />
<path d="M52078 36665
L51890 36796
" />
<path d="M52078 36890
L51684 36890
L51684 36740
L51703 36703
L51721 36684
L51759 36665
L51815 36665
L51853 36684
L51871 36703
L51890 36740
L51890 36890
" />
<path d="M52078 36290
L52078 36515
" />
<path d="M52078 36403
L51684 36403
L51740 36440
L51778 36478
L51796 36515
" />
<path d="M54115 35721
L54378 35721
" />
<path d="M53965 35815
L54246 35909
L54246 35665
" />
<path d="M54378 35515
L53984 35515
" />
<path d="M54228 35478
L54378 35365
" />
<path d="M54115 35365
L54265 35515
" />
<path d="M53984 35234
L53984 34971
L54378 35140
" />
<path d="M54378 36515
L54190 36646
" />
<path d="M54378 36740
L53984 36740
L53984 36590
L54003 36553
L54021 36534
L54059 36515
L54115 36515
L54153 36534
L54171 36553
L54190 36590
L54190 36740
" />
<path d="M54021 36365
L54003 36346
L53984 36309
L53984 36215
L54003 36178
L54021 36159
L54059 36140
L54096 36140
L54153 36159
L54378 36384
L54378 36140
" />
<path d="M55621 35909
L55603 35890
L55584 35853
L55584 35759
L55603 35721
L55621 35703
L55659 35684
L55696 35684
L55753 35703
L55978 35928
L55978 35684
" />
<path d="M55978 35515
L55584 35515
" />
<path d="M55828 35478
L55978 35365
" />
<path d="M55715 35365
L55865 35515
" />
<path d="M55621 35215
L55603 35196
L55584 35159
L55584 35065
L55603 35028
L55621 35009
L55659 34990
L55696 34990
L55753 35009
L55978 35234
L55978 34990
" />
<path d="M55978 36515
L55790 36646
" />
<path d="M55978 36740
L55584 36740
L55584 36590
L55603 36553
L55621 36534
L55659 36515
L55715 36515
L55753 36534
L55771 36553
L55790 36590
L55790 36740
" />
<path d="M55584 36384
L55584 36140
L55734 36271
L55734 36215
L55753 36178
L55771 36159
L55809 36140
L55903 36140
L55940 36159
L55959 36178
L55978 36215
L55978 36328
L55959 36365
L55940 36384
" />
<path d="M56487 41728
L56262 41728
" />
<path d="M56375 41728
L56375 41334
L56337 41390
L56300 41428
L56262 41446
" />
<path d="M56731 41334
L56768 41334
L56806 41353
L56824 41371
L56843 41409
L56862 41484
L56862 41578
L56843 41653
L56824 41690
L56806 41709
L56768 41728
L56731 41728
L56693 41709
L56675 41690
L56656 41653
L56637 41578
L56637 41484
L56656 41409
L56675 41371
L56693 41353
L56731 41334
" />
<path d="M57106 41334
L57143 41334
L57181 41353
L57199 41371
L57218 41409
L57237 41484
L57237 41578
L57218 41653
L57199 41690
L57181 41709
L57143 41728
L57106 41728
L57068 41709
L57049 41690
L57031 41653
L57012 41578
L57012 41484
L57031 41409
L57049 41371
L57068 41353
L57106 41334
" />
<path d="M56534 40678
L56403 40490
" />
<path d="M56309 40678
L56309 40284
L56459 40284
L56496 40303
L56515 40321
L56534 40359
L56534 40415
L56515 40453
L56496 40471
L56459 40490
L56309 40490
" />
<path d="M56871 40415
L56871 40678
" />
<path d="M56778 40265
L56684 40546
L56928 40546
" />
<path d="M56487 42228
L56262 42228
" />
<path d="M56375 42228
L56375 41834
L56337 41890
L56300 41928
L56262 41946
" />
<path d="M56731 41834
L56768 41834
L56806 41853
L56824 41871
L56843 41909
L56862 41984
L56862 42078
L56843 42153
L56824 42190
L56806 42209
L56768 42228
L56731 42228
L56693 42209
L56675 42190
L56656 42153
L56637 42078
L56637 41984
L56656 41909
L56675 41871
L56693 41853
L56731 41834
" />
<path d="M57106 41834
L57143 41834
L57181 41853
L57199 41871
L57218 41909
L57237 41984
L57237 42078
L57218 42153
L57199 42190
L57181 42209
L57143 42228
L57106 42228
L57068 42209
L57049 42190
L57031 42153
L57012 42078
L57012 41984
L57031 41909
L57049 41871
L57068 41853
L57106 41834
" />
<path d="M56534 41228
L56403 41040
" />
<path d="M56309 41228
L56309 40834
L56459 40834
L56496 40853
L56515 40871
L56534 40909
L56534 40965
L56515 41003
L56496 41021
L56459 41040
L56309 41040
" />
<path d="M56890 40834
L56703 40834
L56684 41021
L56703 41003
L56740 40984
L56834 40984
L56871 41003
L56890 41021
L56909 41059
L56909 41153
L56890 41190
L56871 41209
L56834 41228
L56740 41228
L56703 41209
L56684 41190
" />
<path d="M53478 42996
L53478 43221
" />
<path d="M53478 43109
L53084 43109
L53140 43146
L53178 43184
L53196 43221
" />
<path d="M53478 42828
L53084 42828
" />
<path d="M53328 42790
L53478 42678
" />
<path d="M53215 42678
L53365 42828
" />
<path d="M53528 42165
L53340 42296
" />
<path d="M53528 42390
L53134 42390
L53134 42240
L53153 42203
L53171 42184
L53209 42165
L53265 42165
L53303 42184
L53321 42203
L53340 42240
L53340 42390
" />
<path d="M53134 41828
L53134 41903
L53153 41940
L53171 41959
L53228 41996
L53303 42015
L53453 42015
L53490 41996
L53509 41978
L53528 41940
L53528 41865
L53509 41828
L53490 41809
L53453 41790
L53359 41790
L53321 41809
L53303 41828
L53284 41865
L53284 41940
L53303 41978
L53321 41996
L53359 42015
" />
<path d="M55878 43334
L55878 43559
" />
<path d="M55878 43446
L55484 43446
L55540 43484
L55578 43521
L55596 43559
" />
<path d="M55484 43090
L55484 43053
L55503 43015
L55521 42996
L55559 42978
L55634 42959
L55728 42959
L55803 42978
L55840 42996
L55859 43015
L55878 43053
L55878 43090
L55859 43128
L55840 43146
L55803 43165
L55728 43184
L55634 43184
L55559 43165
L55521 43146
L55503 43128
L55484 43090
" />
<path d="M55878 42790
L55484 42790
" />
<path d="M55728 42753
L55878 42640
" />
<path d="M55615 42640
L55765 42790
" />
<path d="M55878 42115
L55690 42246
" />
<path d="M55878 42340
L55484 42340
L55484 42190
L55503 42153
L55521 42134
L55559 42115
L55615 42115
L55653 42134
L55671 42153
L55690 42190
L55690 42340
" />
<path d="M55484 41984
L55484 41721
L55878 41890
" />
<path d="M57771 43187
L57753 43168
L57734 43131
L57734 43037
L57753 42999
L57771 42981
L57809 42962
L57846 42962
L57903 42981
L58128 43206
L58128 42962
" />
<path d="M57771 42812
L57753 42793
L57734 42756
L57734 42662
L57753 42625
L57771 42606
L57809 42587
L57846 42587
L57903 42606
L58128 42831
L58128 42587
" />
<path d="M57734 42343
L57734 42306
L57753 42268
L57771 42250
L57809 42231
L57884 42212
L57978 42212
L58053 42231
L58090 42250
L58109 42268
L58128 42306
L58128 42343
L58109 42381
L58090 42400
L58053 42418
L57978 42437
L57884 42437
L57809 42418
L57771 42400
L57753 42381
L57734 42343
" />
<path d="M58128 41615
L57940 41746
" />
<path d="M58128 41840
L57734 41840
L57734 41690
L57753 41653
L57771 41634
L57809 41615
L57865 41615
L57903 41634
L57921 41653
L57940 41690
L57940 41840
" />
<path d="M57903 41390
L57884 41428
L57865 41446
L57828 41465
L57809 41465
L57771 41446
L57753 41428
L57734 41390
L57734 41315
L57753 41278
L57771 41259
L57809 41240
L57828 41240
L57865 41259
L57884 41278
L57903 41315
L57903 41390
L57921 41428
L57940 41446
L57978 41465
L58053 41465
L58090 41446
L58109 41428
L58128 41390
L58128 41315
L58109 41278
L58090 41259
L58053 41240
L57978 41240
L57940 41259
L57921 41278
L57903 41315
" />
<path d="M51712 38415
L51675 38396
L51637 38359
L51581 38303
L51543 38284
L51506 38284
" />
<path d="M51525 38378
L51487 38359
L51450 38321
L51431 38246
L51431 38115
L51450 38040
L51487 38003
L51525 37984
L51600 37984
L51637 38003
L51675 38040
L51693 38115
L51693 38246
L51675 38321
L51637 38359
L51600 38378
L51525 38378
" />
<path d="M51843 38021
L51862 38003
L51899 37984
L51993 37984
L52031 38003
L52049 38021
L52068 38059
L52068 38096
L52049 38153
L51824 38378
L52068 38378
" />
<path d="M51378 43202
L50984 43202
L51265 43071
L50984 42940
L51378 42940
" />
<path d="M51378 42752
L50984 42752
L51265 42621
L50984 42490
L51378 42490
" />
<path d="M51171 42171
L51190 42115
L51209 42096
L51246 42078
L51303 42078
L51340 42096
L51359 42115
L51378 42153
L51378 42303
L50984 42303
L50984 42171
L51003 42134
L51021 42115
L51059 42096
L51096 42096
L51134 42115
L51153 42134
L51171 42171
L51171 42303
" />
<path d="M50984 41965
L50984 41740
" />
<path d="M51378 41853
L50984 41853
" />
<path d="M50984 41646
L50984 41403
L51134 41534
L51134 41478
L51153 41440
L51171 41421
L51209 41403
L51303 41403
L51340 41421
L51359 41440
L51378 41478
L51378 41590
L51359 41628
L51340 41646
" />
<path d="M51378 41215
L51378 41140
L51359 41103
L51340 41084
L51284 41046
L51209 41028
L51059 41028
L51021 41046
L51003 41065
L50984 41103
L50984 41178
L51003 41215
L51021 41234
L51059 41253
L51153 41253
L51190 41234
L51209 41215
L51228 41178
L51228 41103
L51209 41065
L51190 41046
L51153 41028
" />
<path d="M50984 40784
L50984 40747
L51003 40709
L51021 40690
L51059 40672
L51134 40653
L51228 40653
L51303 40672
L51340 40690
L51359 40709
L51378 40747
L51378 40784
L51359 40821
L51340 40840
L51303 40859
L51228 40878
L51134 40878
L51059 40859
L51021 40840
L51003 40821
L50984 40784
" />
<path d="M51115 40315
L51378 40315
" />
<path d="M50965 40409
L51246 40503
L51246 40259
" />
<path d="M53140 35815
L53159 35834
L53178 35890
L53178 35928
L53159 35984
L53121 36021
L53084 36040
L53009 36059
L52953 36059
L52878 36040
L52840 36021
L52803 35984
L52784 35928
L52784 35890
L52803 35834
L52821 35815
" />
<path d="M52784 35478
L52784 35553
L52803 35590
L52821 35609
L52878 35646
L52953 35665
L53103 35665
L53140 35646
L53159 35628
L53178 35590
L53178 35515
L53159 35478
L53140 35459
L53103 35440
L53009 35440
L52971 35459
L52953 35478
L52934 35515
L52934 35590
L52953 35628
L52971 35646
L53009 35665
" />
<path d="M53678 35940
L53678 36165
" />
<path d="M53678 36053
L53284 36053
L53340 36090
L53378 36128
L53396 36165
" />
<path d="M53284 35696
L53284 35659
L53303 35621
L53321 35603
L53359 35584
L53434 35565
L53528 35565
L53603 35584
L53640 35603
L53659 35621
L53678 35659
L53678 35696
L53659 35734
L53640 35753
L53603 35771
L53528 35790
L53434 35790
L53359 35771
L53321 35753
L53303 35734
L53284 35696
" />
<path d="M53284 35321
L53284 35284
L53303 35246
L53321 35228
L53359 35209
L53434 35190
L53528 35190
L53603 35209
L53640 35228
L53659 35246
L53678 35284
L53678 35321
L53659 35359
L53640 35378
L53603 35396
L53528 35415
L53434 35415
L53359 35396
L53321 35378
L53303 35359
L53284 35321
" />
<path d="M53415 35021
L53678 35021
" />
<path d="M53453 35021
L53434 35003
L53415 34965
L53415 34909
L53434 34871
L53471 34853
L53678 34853
" />
<path d="M54940 35915
L54959 35934
L54978 35990
L54978 36028
L54959 36084
L54921 36121
L54884 36140
L54809 36159
L54753 36159
L54678 36140
L54640 36121
L54603 36084
L54584 36028
L54584 35990
L54603 35934
L54621 35915
" />
<path d="M54584 35784
L54584 35521
L54978 35690
" />
<path d="M55428 36040
L55428 36265
" />
<path d="M55428 36153
L55034 36153
L55090 36190
L55128 36228
L55146 36265
" />
<path d="M55034 35796
L55034 35759
L55053 35721
L55071 35703
L55109 35684
L55184 35665
L55278 35665
L55353 35684
L55390 35703
L55409 35721
L55428 35759
L55428 35796
L55409 35834
L55390 35853
L55353 35871
L55278 35890
L55184 35890
L55109 35871
L55071 35853
L55053 35834
L55034 35796
" />
<path d="M55034 35421
L55034 35384
L55053 35346
L55071 35328
L55109 35309
L55184 35290
L55278 35290
L55353 35309
L55390 35328
L55409 35346
L55428 35384
L55428 35421
L55409 35459
L55390 35478
L55353 35496
L55278 35515
L55184 35515
L55109 35496
L55071 35478
L55053 35459
L55034 35421
" />
<path d="M55165 35121
L55428 35121
" />
<path d="M55203 35121
L55184 35103
L55165 35065
L55165 35009
L55184 34971
L55221 34953
L55428 34953
" />
</g> 
</svg>
